<?xml version="1.0" encoding="utf-8" ?>
<svg xmlns="http://www.w3.org/2000/svg" xmlns:xlink="http://www.w3.org/1999/xlink" width="32" height="32">
	<path fill="#2C7D71" transform="matrix(0.03125 0 0 0.03125 1.90735e-06 2.38419e-07)" d="M0 0L1024 0L1024 1024L0 1024L0 0Z"/>
	<path fill="#C7BA7F" transform="matrix(0.03125 0 0 0.03125 1.90735e-06 2.38419e-07)" d="M511.794 30.0159C516.986 33.5841 521.866 39.5609 526.329 44.0325Q540.301 58.0881 554.449 71.9664L834.28 72.0174L834.278 127.474L896.574 127.463L896.515 189.944L951.91 189.97L951.722 466.451C958.477 473.995 966.072 480.873 973.313 487.949C981.285 495.741 989.023 503.765 996.981 511.572Q974.612 534.318 951.71 556.527L951.938 835.42Q923.824 835.45 895.711 835.13L895.849 895.996L833.861 895.993L833.988 951.856C803.551 951.386 773.055 951.66 742.612 951.609L554.771 952.02C540.561 966.237 526.552 980.801 511.795 994.446C497.253 980.877 483.539 966.146 469.552 951.989L189.075 951.795C188.976 933.198 189.244 914.585 189.381 895.988L128.649 896.006L128.422 835.14Q101.043 835.39 73.6621 835.291L73.5015 557.346C66.461 551.665 60.1154 544.919 53.7295 538.52L27.026 511.625C42.3811 496.383 57.517 480.706 73.5844 466.219L73.4513 189.647L128.251 189.65Q128.436 158.378 128.154 127.107L189.016 127.024L189.023 71.7425L306.224 71.8983L469.973 71.6351C484.16 57.9763 497.797 43.8508 511.794 30.0159Z"/>
	<path fill="#2C7D71" transform="matrix(0.03125 0 0 0.03125 1.90735e-06 2.38419e-07)" d="M951.547 482.841C954.864 485.405 957.89 489.03 960.895 491.984Q970.897 501.981 981.302 511.557L966.331 526.005Q958.804 533.184 951.542 540.631Q951.722 511.736 951.547 482.841Z"/>
	<path fill="#2C7D71" transform="matrix(0.03125 0 0 0.03125 1.90735e-06 2.38419e-07)" d="M73.2231 482.402C74.1371 483.42 73.7423 535.293 73.8358 541.616L59.0044 527.25C53.7996 522.106 48.4816 517.066 43.2188 511.981L73.2231 482.402Z"/>
	<path fill="#1C2A33" transform="matrix(0.03125 0 0 0.03125 1.90735e-06 2.38419e-07)" d="M511.953 46.288C513.733 47.1993 545.083 78.9572 550.254 83.7183C584.559 82.9222 618.976 83.2707 653.291 83.2184L822.63 83.1595L822.573 138.637L885.005 138.625L884.817 201.357L939.924 201.304Q939.626 240.454 939.734 279.601L940.29 456.793L939.542 823.935L884.601 824.05L884.577 884.49L822.619 884.51L822.562 940.757C773.569 941.431 724.499 940.908 675.5 940.897C633.802 940.888 591.983 941.521 550.298 940.564C537.643 951.865 525.774 964.462 513.967 976.659C513.215 977.459 513.067 977.663 511.979 977.996C507.869 975.263 503.845 970.151 500.345 966.615L474.862 940.936L200.769 940.853L200.993 884.322C180.665 884.138 160.299 884.467 139.967 884.52L140.009 823.91L85.3636 824.13L85.8111 201.364L139.557 201.061L139.523 138.371L200.969 138.54L200.758 83.082C227.487 83.4377 254.249 83.1596 280.98 83.1523Q378.111 82.8498 475.241 83.5599Q493.981 65.3023 511.953 46.288Z"/>
	<path fill="#C7BA7F" transform="matrix(0.03125 0 0 0.03125 1.90735e-06 2.38419e-07)" d="M729.985 622.511Q758.385 622.406 786.783 622.72C792.538 622.78 801.745 621.943 807.158 623.32L807.127 623.647L805.247 624.509C802.274 625.656 799.18 626.848 796.002 627.233C785.491 628.51 774.038 627.774 763.377 627.919C752.647 628.065 741.096 629.153 730.443 628.124C729.646 626.589 729.972 624.218 729.985 622.511Z"/>
	<path fill="#37A48A" transform="matrix(0.03125 0 0 0.03125 1.90735e-06 2.38419e-07)" d="M372.637 370.773C376.246 373.846 379.397 378.599 382.361 382.337L400.54 405.489C398.98 409.782 397.164 414.009 395.463 418.25L392.717 423.981C388.688 414.558 385.232 404.841 381.623 395.248C378.571 387.137 375.264 379.03 372.637 370.773Z"/>
	<path fill="#E6B97F" transform="matrix(0.03125 0 0 0.03125 1.90735e-06 2.38419e-07)" d="M215.092 623.256C240.003 622.389 265.116 623.393 290.028 623.899L290.019 630.708L259.833 630.633C253.392 630.61 246.677 630.885 240.278 630.102C231.646 629.045 223.117 626.573 215.092 623.256Z"/>
	<path fill="#37A48A" transform="matrix(0.03125 0 0 0.03125 1.90735e-06 2.38419e-07)" d="M304.083 475.109C324.784 476.76 345.681 479.153 366.332 481.45Q364.372 486.815 362.283 492.13C361.668 493.852 360.918 495.533 360.213 497.219L304.083 475.109Z"/>
	<path fill="#C7BA7F" transform="matrix(0.03125 0 0 0.03125 1.90735e-06 2.38419e-07)" d="M260.005 858.744L284.482 858.527C284.528 863.302 285.575 877.763 283.875 881.725Q271.576 881.903 259.276 881.734C259.266 877.295 258.272 861.684 260.005 858.744Z"/>
	<path fill="#E6B97F" transform="matrix(0.03125 0 0 0.03125 1.90735e-06 2.38419e-07)" d="M740.667 857.159C748.746 857.015 756.836 857.055 764.916 857.009L764.796 881.49L740.56 881.455Q740.487 869.306 740.667 857.159Z"/>
	<path fill="#E6B97F" transform="matrix(0.03125 0 0 0.03125 1.90735e-06 2.38419e-07)" d="M740.309 143.121L765.168 143.043C765.191 147.136 766.101 165.924 764.491 168.184L740.247 168.31L740.309 143.121Z"/>
	<path fill="#C7BA7F" transform="matrix(0.03125 0 0 0.03125 1.90735e-06 2.38419e-07)" d="M835.598 605.244C836.208 605.2 836.843 605.285 837.453 605.325C837.296 605.571 837.177 605.844 836.983 606.061C834.813 608.488 828.597 610.941 825.47 611.376C817.791 612.442 807.267 611.485 799.178 611.629L732.375 612.861C731.621 612.857 731.172 612.759 730.457 612.56C729.476 610.786 729.89 608.448 729.976 606.479C765.131 606.618 800.437 605.65 835.598 605.244Z"/>
	<path fill="#E6B97F" transform="matrix(0.03125 0 0 0.03125 1.90735e-06 2.38419e-07)" d="M184.525 606.137C197.814 605.249 211.614 606.063 224.933 606.279Q257.468 606.812 290.005 607.017L290.011 613.59C268.016 612.989 245.931 613.243 223.923 613.014C216.042 612.932 203.626 613.764 196.31 612.046C192.451 611.14 188.008 608.018 184.525 606.137Z"/>
	<path fill="#C7BA7F" transform="matrix(0.03125 0 0 0.03125 1.90735e-06 2.38419e-07)" d="M257.537 142.059L283.073 142.037Q283.193 155.2 283.018 168.363Q270.254 168.394 257.491 168.286L257.537 142.059Z"/>
	<path fill="#37A48A" transform="matrix(0.03125 0 0 0.03125 1.90735e-06 2.38419e-07)" d="M724.274 480.5L724.839 480.562L724.573 481.091C717.088 486.297 647.829 529.682 645.701 530.096C645.346 530.166 644.982 530.022 644.622 529.985L643.929 528.376C642.625 523.914 640.946 519.619 639.27 515.288C650.558 510.026 662.247 505.575 673.783 500.892C682.551 497.334 691.21 493.5 700.01 490.027C708.087 486.839 716.313 483.965 724.274 480.5Z"/>
	<path fill="#E6B97F" transform="matrix(0.03125 0 0 0.03125 1.90735e-06 2.38419e-07)" d="M162.27 588.74L289.997 590.498C290.033 592.792 290.001 595.002 289.786 597.29C249.853 596.046 209.86 596.782 169.929 595.546C167.9 593.985 163.122 590.993 162.27 588.74Z"/>
	<path fill="#E6B97F" transform="matrix(0.03125 0 0 0.03125 1.90735e-06 2.38419e-07)" d="M849.513 588.239L860.987 588.019L853.403 594.969C816.184 595.099 778.973 596.289 741.75 596.474C738.795 596.431 735.193 597.191 732.351 596.502C731.052 596.187 730.605 595.537 729.949 594.464C729.837 593.169 729.85 592.617 730.491 591.476C731.497 590.705 732.311 590.345 733.56 590.22C735.799 589.996 738.117 590.357 740.371 590.299L762.091 589.545C791.252 588.655 820.347 588.564 849.513 588.239Z"/>
	<path fill="#37A48A" transform="matrix(0.03125 0 0 0.03125 1.90735e-06 2.38419e-07)" d="M308.689 394.469C315.297 396.933 372.097 446.246 380.074 453.889C379.036 457.249 377.694 460.406 376.28 463.623C375.638 465.225 374.781 466.731 373.97 468.252C365.85 460.195 310.561 400.948 308.839 395.83C308.694 395.397 308.739 394.923 308.689 394.469Z"/>
	<path fill="#B63E33" transform="matrix(0.03125 0 0 0.03125 1.90735e-06 2.38419e-07)" d="M727.018 406.428C732.275 410.318 752.879 430.631 753.786 436.302C754.457 440.494 744.812 452.648 742.034 456.776C739.014 460.973 736.128 465.286 733.187 469.541C731.14 469.358 729.053 469.409 726.998 469.384L727.018 406.428Z"/>
	<path fill="#37A48A" transform="matrix(0.03125 0 0 0.03125 1.90735e-06 2.38419e-07)" d="M646.396 365.401C646.233 371.766 608.446 459.568 602.502 472.916C599.504 470.717 596.479 468.848 593.173 467.147L587.751 464.607Q604.984 433.461 623.328 402.955C630.759 390.42 637.993 377.296 646.396 365.401Z"/>
	<path fill="#37A48A" transform="matrix(0.03125 0 0 0.03125 1.90735e-06 2.38419e-07)" d="M706.969 397.974C706.339 403.448 640.195 482.663 631.58 494.955L626.679 489.449L619.728 482.338C630.265 470.727 642.137 460.085 653.435 449.216Q680.014 423.398 706.969 397.974Z"/>
	<path fill="#B63E33" transform="matrix(0.03125 0 0 0.03125 1.90735e-06 2.38419e-07)" d="M295.851 405.95C297.069 407.273 296.295 474.066 296.271 482.419Q291.267 476.053 286.579 469.451C281.848 462.581 277.104 455.735 272.716 448.637L272.732 428.643C280.713 421.453 288.19 413.5 295.851 405.95Z"/>
	<path fill="#C7BA7F" transform="matrix(0.03125 0 0 0.03125 1.90735e-06 2.38419e-07)" d="M890.811 557.252L892.237 557.17L892.219 557.919C885.572 565.067 878.441 571.71 871.185 578.23C846.8 578.968 822.339 579.028 797.943 579.429C775.914 579.791 753.91 580.52 731.875 580.597L730.253 580.282L729.689 579.412C729.805 578.932 729.924 578.379 730.275 578.005C730.63 577.627 731.145 577.385 731.603 577.179C734.58 575.836 749.587 575.1 754.046 574.57L848.226 562.996C862.377 561.185 876.611 558.415 890.811 557.252Z"/>
	<path fill="#E6B97F" transform="matrix(0.03125 0 0 0.03125 1.90735e-06 2.38419e-07)" d="M134.849 558.881C139.722 558.823 145.093 560.002 149.932 560.658Q165.527 562.823 181.148 564.79C217.246 569.098 253.676 573.333 289.957 575.698L289.973 581.695C274.954 580.794 259.754 581.113 244.71 580.809Q199.131 579.686 153.539 579.335C147.082 572.742 140.934 565.816 134.849 558.881Z"/>
	<path fill="#E6B97F" transform="matrix(0.03125 0 0 0.03125 1.90735e-06 2.38419e-07)" d="M172.381 320.221C177.189 325.034 181.217 332.468 185.05 338.147L212.126 378.369C236.981 414.662 263.294 449.834 287.688 486.471C290.164 490.19 293.45 494.412 294.405 498.812L293.933 499.491C292.348 498.923 291.432 497.748 290.315 496.553C280.979 487.397 272.471 477.374 263.87 467.537Q247.489 448.69 230.912 430.015Q209.738 406.221 189.021 382.026C181.072 372.89 172.614 364.098 165.323 354.419C168.33 343.195 169.249 331.476 172.381 320.221Z"/>
	<path fill="#E6B97F" transform="matrix(0.03125 0 0 0.03125 1.90735e-06 2.38419e-07)" d="M854.271 317.315C856.655 324.962 856.012 350.947 856.391 360.666C841.334 378.559 825.329 395.593 809.931 413.185C783.097 443.843 756.455 474.983 728.601 504.707L727.963 505.247L727.59 504.29C729.529 497.548 739.618 484.655 743.931 478.208C763.872 448.401 784.67 419.213 805.072 389.724C821.666 365.737 837.456 341.137 854.271 317.315Z"/>
	<defs>
		<linearGradient id="gradient_0" gradientUnits="userSpaceOnUse" x1="789.97876" y1="533.16937" x2="843.92651" y2="348.06921">
			<stop offset="0" stop-color="#EBB570"/>
			<stop offset="1" stop-color="#EECFA3"/>
		</linearGradient>
	</defs>
	<path fill="url(#gradient_0)" transform="matrix(0.03125 0 0 0.03125 1.90735e-06 2.38419e-07)" d="M877.863 356.318C880.69 358.578 892.439 380.394 895.358 385.134C887.834 391.655 879.829 397.752 872.097 404.038L831.609 437.283L740.206 514.142C736.378 517.498 732.587 520.885 728.516 523.949C728.614 523.787 728.709 523.624 728.809 523.463L729.31 522.662C734.191 514.748 741.303 507.885 747.537 500.991C760.168 487.023 773.153 473.396 785.837 459.481Q813.156 429.618 840.172 399.481C852.822 385.175 865.065 370.485 877.863 356.318Z"/>
	<path fill="#E6B97F" transform="matrix(0.03125 0 0 0.03125 1.90735e-06 2.38419e-07)" d="M902.495 399.523C905.925 402.78 914.646 419.196 917.741 424.429L740.225 534.389C736.248 536.97 732.124 540.058 727.663 541.682C733.974 533.36 747.997 523.123 756.311 516.381L795.97 484.227Q831.909 454.522 868.265 425.33C879.362 416.57 890.481 406.946 902.495 399.523Z"/>
	<defs>
		<linearGradient id="gradient_1" gradientUnits="userSpaceOnUse" x1="940.06543" y1="282.83414" x2="809.6181" y2="267.75354">
			<stop offset="0" stop-color="#B33B33"/>
			<stop offset="1" stop-color="#D25B3D"/>
		</linearGradient>
	</defs>
	<path fill="url(#gradient_1)" transform="matrix(0.03125 0 0 0.03125 1.90735e-06 2.38419e-07)" d="M822.092 150.889C838.902 150.502 855.841 150.911 872.658 151.011L872.936 212.071L927.408 212.39L927.037 406.615L926.335 406.482Q921.017 398.302 915.987 389.942C915.55 364.626 915.88 339.251 915.866 313.93L915.602 223.002L861.933 223.235L861.927 161.975L822.065 162.034L822.092 150.889Z"/>
	<path fill="#E6B97F" transform="matrix(0.03125 0 0 0.03125 1.90735e-06 2.38419e-07)" d="M121.851 396.327C130.88 403.256 139.574 410.789 148.439 417.942Q185.736 448.412 223.397 478.432L262.849 509.366C271.059 515.699 280.2 521.851 287.614 529.09C288.812 530.26 290.352 531.935 290.369 533.687C287.557 533.843 281.999 529.867 279.502 528.438Q191.7 477.682 105.308 424.559Q113.707 410.518 121.851 396.327Z"/>
	<path fill="#B63E33" transform="matrix(0.03125 0 0 0.03125 1.90735e-06 2.38419e-07)" d="M151.594 150.557L201.229 150.622C201.322 154.411 201.225 158.216 201.197 162.006Q181.885 161.87 162.572 161.968C162.753 182.377 162.511 202.814 162.465 223.226L110.132 223.464C110.398 240.423 110.09 257.431 110.063 274.394L110.023 368.436C110.012 373.575 110.505 378.987 109.948 384.084C109.07 392.125 102.326 400.725 98.2923 407.692C97.5163 384.978 98.0324 362.064 98.0117 339.329L97.8813 212.372L151.604 212.226Q151.872 181.391 151.594 150.557Z"/>
	<path fill="#E6B97F" transform="matrix(0.03125 0 0 0.03125 1.90735e-06 2.38419e-07)" d="M147.387 356.25C151.686 358.704 157.62 366.367 161.2 370.164C180.982 391.149 200.007 412.816 219.3 434.248L283.018 504.203C286.395 507.981 290.817 511.187 290.515 516.583L290.008 516.785C286.787 514.588 283.827 511.974 280.826 509.487C244.652 478.925 207.863 448.962 171.119 419.086C157.449 407.972 143.502 397.199 129.988 385.895C136.063 376.173 141.431 366.041 147.387 356.25Z"/>
	<path fill="#CD7D48" transform="matrix(0.03125 0 0 0.03125 1.90735e-06 2.38419e-07)" d="M926.194 436.485L926.375 436.524C927.445 437.703 926.813 475.13 926.824 479.667C911.964 485.415 896.708 490.456 881.72 495.892Q851.154 506.998 820.703 518.416C790.829 529.39 761.06 540.319 731.759 552.764L731.405 552.796L731.204 552.397C762.409 534.224 793.934 516.6 824.842 497.919C858.602 477.513 891.854 455.897 926.194 436.485Z"/>
	<path fill="#B63E33" transform="matrix(0.03125 0 0 0.03125 1.90735e-06 2.38419e-07)" d="M173.641 172.593L201.59 172.587L201.561 278.974C201.534 300.055 200.696 321.515 201.832 342.546C191.91 328.033 182.594 312.57 173.847 297.315L173.641 172.593Z"/>
	<path fill="#CD7D48" transform="matrix(0.03125 0 0 0.03125 1.90735e-06 2.38419e-07)" d="M925.382 495.514L926.4 495.801C926.961 500.046 926.55 504.855 926.551 509.164L926.543 536.26C904.864 538.794 883.13 542.971 861.507 546.134C818.116 552.482 774.754 558.493 731.483 565.691C730.636 565.308 730.799 565.218 730.469 564.403C731.582 563.13 733.287 562.642 734.833 562.059C754.051 554.807 773.741 548.605 793.179 541.956L844.398 523.927Q885.053 510.186 925.382 495.514Z"/>
	<path fill="#B63E33" transform="matrix(0.03125 0 0 0.03125 1.90735e-06 2.38419e-07)" d="M821.503 173.13C830.771 173.104 840.349 172.565 849.579 173.281L849.537 301.232C844.24 309.937 838.363 318.317 832.671 326.767Q827.161 335.047 821.508 343.229C821.081 326.562 821.401 309.796 821.362 293.121L821.503 173.13Z"/>
	<path fill="#CD7D48" transform="matrix(0.03125 0 0 0.03125 1.90735e-06 2.38419e-07)" d="M97.1808 436.414C102.922 439.265 108.419 443.057 113.926 446.364L140.766 462.229Q185.409 489.271 230.772 515.086C236.813 518.482 287.697 545.402 289.253 547.073C290.323 548.222 289.964 549.872 289.978 551.333C279.409 546.847 268.55 543 257.831 538.887Q225.736 526.36 193.363 514.57Q164.127 503.788 134.771 493.34C122.244 488.861 109.751 484.071 97.0035 480.259C97.0064 465.654 96.8118 451.014 97.1808 436.414Z"/>
	<path fill="#CD7D48" transform="matrix(0.03125 0 0 0.03125 1.90735e-06 2.38419e-07)" d="M96.9273 494.594Q165.47 519.018 234.278 542.679L269.975 555.356C276.449 557.653 283.093 559.632 289.416 562.313C290.306 563.717 290.01 565.518 289.981 567.12C282.646 565.201 274.735 564.496 267.22 563.44Q246.115 560.595 225.068 557.351L144.388 544.145C128.602 541.479 112.832 538.218 96.94 536.25L96.9273 494.594Z"/>
	<path fill="#B63E33" transform="matrix(0.03125 0 0 0.03125 1.90735e-06 2.38419e-07)" d="M121.463 233.698L162.471 233.53C162.506 256.797 162.937 280.17 162.226 303.422C161.757 318.786 160.172 334.085 159.713 349.451C157.437 346.71 144.939 330.065 143.223 329.782C135.796 343.43 128.404 357.392 121.623 371.366C120.92 325.518 121.337 279.555 121.463 233.698Z"/>
	<defs>
		<linearGradient id="gradient_2" gradientUnits="userSpaceOnUse" x1="932.56836" y1="708.47894" x2="816.04791" y2="713.64331">
			<stop offset="0" stop-color="#B23731"/>
			<stop offset="1" stop-color="#D2743E"/>
		</linearGradient>
	</defs>
	<path fill="url(#gradient_2)" transform="matrix(0.03125 0 0 0.03125 1.90735e-06 2.38419e-07)" d="M926.027 547.437C926.695 548.443 926.607 548.678 926.637 549.835C926.883 559.515 926.542 569.274 926.519 578.964L926.441 638.808L926.333 811.592L872.453 811.446L872.456 872.267L822.446 872.043L822.427 861.608L861.78 861.491C861.722 841.429 861.444 821.316 861.847 801.26Q888.688 800.927 915.531 800.96L914.873 558.871Q920.412 553.117 926.027 547.437Z"/>
	<defs>
		<linearGradient id="gradient_3" gradientUnits="userSpaceOnUse" x1="94.999153" y1="711.9469" x2="194.45114" y2="708.37787">
			<stop offset="0" stop-color="#B93F34"/>
			<stop offset="1" stop-color="#CD5638"/>
		</linearGradient>
	</defs>
	<path fill="url(#gradient_3)" transform="matrix(0.03125 0 0 0.03125 1.90735e-06 2.38419e-07)" d="M97.8843 546.94C101.563 550.387 105.036 553.925 108.461 557.62L108.633 799.952L162.822 800.003L162.63 861.917L201.408 861.896L201.307 872.464L152.052 872.575L151.592 810.983L97.6746 811.092C96.6766 748.96 97.5009 686.686 97.5061 624.536L97.5014 571.896C97.502 563.927 96.5774 554.737 97.8843 546.94Z"/>
	<path fill="#B63E33" transform="matrix(0.03125 0 0 0.03125 1.90735e-06 2.38419e-07)" d="M862.031 232.99L903.952 232.846C903.588 278.92 904.106 325.028 903.483 371.097C901.484 365.439 898.384 360.108 895.627 354.787C890.987 346.276 887.009 337.41 882.718 328.719C878.18 337.047 870.394 345.038 864.232 352.255C864.756 337.336 864.242 322.249 864.121 307.322C864.075 301.562 864.878 291.772 863.648 286.516L862.639 287.411L862.203 287.162C861.614 269.153 862.042 251.014 862.031 232.99Z"/>
	<path fill="#B63E33" transform="matrix(0.03125 0 0 0.03125 1.90735e-06 2.38419e-07)" d="M561.061 96.0943C589.083 95.3359 617.342 96.0119 645.382 96.012L811.649 95.9921C811.241 118.392 811.51 140.844 811.504 163.249L811.477 284.352C811.47 308.212 811.99 332.228 811.187 356.069L807.382 361.748C805.905 363.903 804.206 365.925 802.587 367.975C801.906 337.13 802.501 306.142 802.509 275.28L802.467 105.398L570.676 105.326C567.173 102.54 564.101 99.3691 561.061 96.0943Z"/>
	<path fill="#B63E33" transform="matrix(0.03125 0 0 0.03125 1.90735e-06 2.38419e-07)" d="M351.67 95.7468L463.15 95.9789C459.655 98.9567 456.427 102.413 453.126 105.614C425.533 106.146 397.804 105.496 370.195 105.449L221.656 105.492L221.911 269.75L221.989 371.894C219.306 366.344 215.812 361.102 212.569 355.862C212.017 326.294 212.381 296.66 212.346 267.086L212.204 95.7677Q281.937 96.123 351.67 95.7468Z"/>
	<path fill="#B63E33" transform="matrix(0.03125 0 0 0.03125 1.90735e-06 2.38419e-07)" d="M211.971 637.634C215.066 638.929 218.307 639.864 221.503 640.876L221.636 918.023C298.268 917.587 374.929 918.803 451.557 917.702C455.03 920.721 458.107 924.035 461.213 927.417L212.052 927.916L211.971 637.634Z"/>
	<path fill="#B63E33" transform="matrix(0.03125 0 0 0.03125 1.90735e-06 2.38419e-07)" d="M811.423 635.574C811.612 635.88 811.893 636.145 811.99 636.49C812.82 639.455 812.052 648.413 812.051 651.909L812.048 701.274L812.02 927.526C729.442 927.496 646.749 928.623 564.185 927.284L564.033 926.835C565.288 923.593 570.105 919.919 572.682 917.539Q687.662 918.424 802.641 917.581L802.526 638.531C805.579 637.713 808.476 636.714 811.423 635.574Z"/>
	<path fill="#37A48A" transform="matrix(0.03125 0 0 0.03125 1.90735e-06 2.38419e-07)" d="M472.811 254.835C476.959 257.827 480.86 263.074 484.502 266.782Q497.859 280.471 511.598 293.777C516.862 289.63 521.596 284.289 526.309 279.53Q538.248 267.538 550.006 255.368C560.461 264.611 570.168 274.848 580.029 284.72C588.736 293.436 597.904 301.963 605.878 311.355L588.25 311.445L416.442 311.55C422.504 304.651 429.442 298.314 435.94 291.805L472.811 254.835Z"/>
	<path fill="#B63E33" transform="matrix(0.03125 0 0 0.03125 1.90735e-06 2.38419e-07)" d="M174.325 615.575C183.706 620.609 191.908 627.458 201.546 632.274L201.522 850.648C192.461 850.371 183.331 850.584 174.262 850.565C175.22 772.253 174.014 693.893 174.325 615.575Z"/>
	<path fill="#B63E33" transform="matrix(0.03125 0 0 0.03125 1.90735e-06 2.38419e-07)" d="M849.02 615.426L849.622 615.613C850.777 620.03 849.881 628.111 849.85 633.003Q849.709 649.745 849.754 666.487L849.842 849.504L824.375 849.486L823.123 849.314C822.456 848.219 822.489 847.283 822.455 846.041C821.846 823.808 822.522 801.342 822.5 779.08L822.5 630.401C831.959 626.645 840.515 620.931 849.02 615.426Z"/>
	<path fill="#B63E33" transform="matrix(0.03125 0 0 0.03125 1.90735e-06 2.38419e-07)" d="M272.971 657.564C292.669 656.994 312.52 657.535 332.234 657.567C351.956 677.814 372.536 697.298 392.543 717.275L430.998 755.348C440.919 765.209 450.699 775.28 460.992 784.754C456.859 789.458 452.352 793.854 447.966 798.322C443.165 803.13 438.459 808.038 433.72 812.908C423.7 804.895 414.597 795.128 405.344 786.215C391.399 772.783 377.234 759.601 363.403 746.044L298.967 682.77C290.345 674.327 281.417 666.183 272.971 657.564Z"/>
	<path fill="#B63E33" transform="matrix(0.03125 0 0 0.03125 1.90735e-06 2.38419e-07)" d="M902.86 570.902C903.613 571.681 903.49 572.466 903.51 573.512C903.957 598.07 903.243 622.773 903.205 647.347L903.163 789.05L862.555 789.186C861.236 787.416 861.537 625.214 861.52 607.681C876.325 597.342 889.986 583.576 902.86 570.902Z"/>
	<path fill="#B63E33" transform="matrix(0.03125 0 0 0.03125 1.90735e-06 2.38419e-07)" d="M772.648 642.241L779.483 642.01L779.537 895.998L596.836 895.574C608.572 881.53 622.659 869.215 635.685 856.361C665.434 827.003 695.986 798.283 724.845 768.048C730.137 762.619 735.665 757.543 741.355 752.539C741.802 785.05 741.487 817.602 741.489 850.118L651.454 850.119Q632.612 869.483 613.14 888.215C631.581 888.732 650.118 888.318 668.568 888.29L772.521 888.035L772.534 733.459C772.52 703.091 771.939 672.593 772.648 642.241Z"/>
	<path fill="#1C2A33" transform="matrix(0.03125 0 0 0.03125 1.90735e-06 2.38419e-07)" d="M733.356 769.879C733.45 769.967 733.561 770.038 733.636 770.142C734.721 771.636 734.042 835.488 734.033 842.898L661.167 842.924C660.795 842.569 660.984 842.816 660.765 842.082C667.507 834.888 674.922 828.325 681.904 821.362L733.356 769.879Z"/>
	<path fill="#B63E33" transform="matrix(0.03125 0 0 0.03125 1.90735e-06 2.38419e-07)" d="M243.113 647.669L250.221 648.037Q250.612 693.986 250.53 739.936L250.49 887.737L410.756 887.507C397.966 874.721 384.839 862.152 371.81 849.604C342.248 848.813 312.523 849.711 282.941 849.653Q282.296 800.986 282.962 752.318Q289.708 758.532 296.25 764.959C324.79 792.229 352.527 820.438 380.538 848.256C396.353 863.962 412.658 879.128 428.316 895.008C411.525 895.298 394.701 895.094 377.905 895.173L243.017 895.398L243.052 732.445L242.987 678.161C242.975 668.031 242.641 657.78 243.113 647.669Z"/>
	<path fill="#1C2A33" transform="matrix(0.03125 0 0 0.03125 1.90735e-06 2.38419e-07)" d="M290.057 768.368C293.798 771.297 297.238 775.285 300.625 778.641L321.837 799.707Q337.941 815.422 353.86 831.323C357.294 834.783 362.144 838.7 364.737 842.766C339.764 842.422 314.756 842.687 289.778 842.682C289.379 817.958 289.736 793.096 290.057 768.368Z"/>
	<path fill="#B63E33" transform="matrix(0.03125 0 0 0.03125 1.90735e-06 2.38419e-07)" d="M120.781 569.652C124.917 572.622 128.75 577.33 132.384 580.956C141.555 590.107 151.527 599.748 162.642 606.496C162.361 623.295 162.978 640.195 162.972 657.01L163.036 789.19C148.849 789.38 134.637 789.204 120.448 789.197L120.628 651.707C120.583 624.433 119.752 596.896 120.781 569.652Z"/>
	<path fill="#B63E33" transform="matrix(0.03125 0 0 0.03125 1.90735e-06 2.38419e-07)" d="M690.079 657.04L747.179 657.039L599.178 804.532L585.304 817.988L554.356 789.37C565.714 779.685 576.168 768.5 586.82 758.02L646.849 698.994Q659.971 685.959 673.304 673.139C678.835 667.751 684.235 662.084 690.079 657.04Z"/>
	<path fill="#B63E33" transform="matrix(0.03125 0 0 0.03125 1.90735e-06 2.38419e-07)" d="M433.51 210.293C436.265 211.312 454.978 231.853 458.574 235.556C434.201 261.801 408.132 286.678 382.793 311.99Q334.832 360.598 286.004 408.334Q279.166 415.072 272.573 422.05C272.29 404.156 272.478 386.228 272.437 368.33Q352.538 288.865 433.51 210.293Z"/>
	<path fill="#B63E33" transform="matrix(0.03125 0 0 0.03125 1.90735e-06 2.38419e-07)" d="M596.377 127.714C603.506 127.219 610.855 127.552 618.006 127.549L657.604 127.525L780.858 127.501L780.131 400.515C777.843 403.813 775.708 407.135 773.696 410.608C772.121 402.592 772.805 393.188 772.737 385L772.568 335.283L772.219 151.608L772.174 136.034L674.866 136.222C654.713 136.266 634.424 136.749 614.288 136.05C627.533 148.136 640.083 161.281 652.725 174.016Q697.516 174.674 742.309 174.235C741.68 185.346 742.109 196.718 742.116 207.863L742.078 273.893C714.63 246.012 686.657 218.564 658.841 191.047C649.773 182.076 599.069 133.992 596.377 127.714Z"/>
	<path fill="#1C2A33" transform="matrix(0.03125 0 0 0.03125 1.90735e-06 2.38419e-07)" d="M662.17 183.077C685.874 182.302 709.813 182.971 733.541 183.001L733.662 253.256C729.496 249.856 725.735 245.734 721.906 241.957L699.598 219.819Q688.256 208.475 676.787 197.26C671.922 192.55 666.8 188.013 662.17 183.077Z"/>
	<path fill="#B63E33" transform="matrix(0.03125 0 0 0.03125 1.90735e-06 2.38419e-07)" d="M422.587 127.75C424.747 127.801 426.928 127.655 429.088 127.577L281.5 273.842C280.692 240.642 281.202 207.219 281.363 174.006C293.433 173.407 305.594 173.587 317.678 173.564L371.967 173.494C384.126 162.761 397.688 148.136 409.192 136.399C356.804 136.997 304.369 136.289 251.973 136.427L252.01 150.25L252.363 413.611Q247.982 407.453 244.081 400.98C243.164 366.6 243.886 332.021 243.922 297.618L243.862 127.874C303.398 127.095 363.038 127.889 422.587 127.75Z"/>
	<path fill="#1C2A33" transform="matrix(0.03125 0 0 0.03125 1.90735e-06 2.38419e-07)" d="M289.249 181.49L363.268 181.39C351.483 193.641 339.223 205.471 327.146 217.435Q308.516 236.338 289.424 254.774C289.177 230.349 289.64 205.911 289.249 181.49Z"/>
	<defs>
		<linearGradient id="gradient_4" gradientUnits="userSpaceOnUse" x1="511.36023" y1="885.98883" x2="512.69653" y2="809.4989">
			<stop offset="0" stop-color="#DB7539"/>
			<stop offset="1" stop-color="#E8B376"/>
		</linearGradient>
	</defs>
	<path fill="url(#gradient_4)" transform="matrix(0.03125 0 0 0.03125 1.90735e-06 2.38419e-07)" d="M511.639 753.045C516.27 757.261 520.553 761.856 525.065 766.2C531.651 772.541 538.422 778.695 545.047 784.997C550.055 789.762 559.289 797.411 563.082 802.529C569.654 808.129 575.803 814.291 582.05 820.252C559.25 843.148 535.425 865.061 512.45 887.79C501.93 878.388 491.856 868.356 481.672 858.582L443.108 821.772L465.421 799.711C480.1 783.573 496.361 768.641 511.639 753.045Z"/>
	<path fill="#E6B97F" transform="matrix(0.03125 0 0 0.03125 1.90735e-06 2.38419e-07)" d="M511.639 753.045C516.27 757.261 520.553 761.856 525.065 766.2C531.651 772.541 538.422 778.695 545.047 784.997C550.055 789.762 559.289 797.411 563.082 802.529C564.31 805.682 567.984 808.338 570.446 810.635C569.558 810.585 568.722 810.476 567.891 810.856C567.267 811.142 566.709 811.468 566.056 811.705C553.536 816.24 477.546 814.657 463.194 812.541C460.749 812.181 458.606 811.448 456.417 810.323C458.232 806.336 464.519 804.306 465.421 799.711C480.1 783.573 496.361 768.641 511.639 753.045Z"/>
	<path fill="#B63E33" transform="matrix(0.03125 0 0 0.03125 1.90735e-06 2.38419e-07)" d="M589.103 210.225C591.334 210.841 738.003 355.352 753.263 370.276L753.483 425.307C749.622 421.084 745.592 417.04 741.554 412.988C718.88 392.04 697.309 369.54 675.468 347.717L564.275 236.477C572.264 227.49 580.911 219.036 589.103 210.225Z"/>
	<path fill="#E6B97F" transform="matrix(0.03125 0 0 0.03125 1.90735e-06 2.38419e-07)" d="M511.438 135.303C515.036 136.877 572.667 194.845 581.074 203.036C573.586 210.102 566.501 217.608 559.258 224.925Q535.64 248.777 512.333 272.932C512.253 272.942 512.174 272.973 512.095 272.963C512.075 272.96 511.134 272.717 511.101 272.696C508.982 271.288 499.249 260.282 496.624 257.617L442.712 203.038C465.066 179.938 488.504 157.827 511.438 135.303Z"/>
	<path fill="#37A48A" transform="matrix(0.03125 0 0 0.03125 1.90735e-06 2.38419e-07)" d="M384.01 657.181C392.516 656.548 401.413 657.041 409.96 657.083L459.124 657.242L642.643 657.181C634.956 665.597 626.507 673.384 618.425 681.422L579.043 721.084C565.774 734.55 552.175 747.679 538.976 761.215C530.12 752.158 520.299 744.045 511.328 735.081C502.778 742.908 494.885 751.279 486.993 759.763C461.163 733.551 434.542 708.036 408.435 682.09C403.777 677.462 386.774 661.856 384.01 657.181Z"/>
	<path fill="#1C2A33" transform="matrix(0.03125 0 0 0.03125 1.90735e-06 2.38419e-07)" d="M486.974 663.503L499.01 663.508L499.256 717.825L486.884 717.895L486.974 663.503Z"/>
	<path fill="#1C2A33" transform="matrix(0.03125 0 0 0.03125 1.90735e-06 2.38419e-07)" d="M525.018 663.484L537.304 663.418L537.412 717.539C533.272 717.678 529.105 717.615 524.962 717.646L525.018 663.484Z"/>
	<defs>
		<linearGradient id="gradient_5" gradientUnits="userSpaceOnUse" x1="574.68689" y1="641.87238" x2="648.28876" y2="354.91302">
			<stop offset="0" stop-color="#DCA36B"/>
			<stop offset="1" stop-color="#F5D7AC"/>
		</linearGradient>
	</defs>
	<path fill="url(#gradient_5)" transform="matrix(0.03125 0 0 0.03125 1.90735e-06 2.38419e-07)" d="M530.517 336.155C546.386 335.501 562.414 335.915 578.303 335.891L578.013 596.072L673.322 596.132L673.306 579.029L699.446 579.017L699.538 630.249Q609.954 630.727 520.37 630.135C524.544 628.078 528.895 626.095 532.28 622.814C535.151 620.031 536.453 616.999 536.84 613.064C537.828 603.026 537.045 592.212 537.036 582.107L536.834 518.192L536.754 343.748C534.667 341.47 531.879 338.926 530.517 336.155Z"/>
	<path fill="#CD7D48" transform="matrix(0.03125 0 0 0.03125 1.90735e-06 2.38419e-07)" d="M545.541 540.051L569.097 540.147L569.05 604.008L681.027 603.798L680.958 586.384L691.608 586.289L691.616 607.625Q691.592 614.669 691.853 621.708C673.044 622.057 654.165 621.666 635.349 621.613L543.714 621.643C543.794 621.431 543.869 621.218 543.956 621.009C544.532 619.626 545.142 618.394 545.338 616.884C546.428 608.497 545.638 599.175 545.618 590.663L545.541 540.051Z"/>
	<defs>
		<linearGradient id="gradient_6" gradientUnits="userSpaceOnUse" x1="392.87418" y1="647.12347" x2="462.5845" y2="332.20221">
			<stop offset="0" stop-color="#D79D63"/>
			<stop offset="1" stop-color="#FCDEB3"/>
		</linearGradient>
	</defs>
	<path fill="url(#gradient_6)" transform="matrix(0.03125 0 0 0.03125 1.90735e-06 2.38419e-07)" d="M433.561 335.738Q459.486 335.734 485.409 336.004L485.311 533.868L485.075 590.876C485.063 597.709 484.091 610.316 485.626 616.44C487.058 622.15 496.273 627.473 501.102 630.091C476.429 629.741 451.713 630.006 427.035 629.995C434.64 626.884 439.78 623.878 444.461 616.902C444.823 602.459 444.584 587.961 444.589 573.51L376.37 573.427C371.709 585.929 365.863 598.177 361.876 610.891C361.596 612.194 361.326 613.427 361.723 614.747C363.891 621.952 375.653 626.711 381.893 629.921C357.176 630.56 332.367 630.061 307.642 630.03C313.738 626.502 321.082 623.032 325.972 617.87C328.001 615.727 342.472 578.335 344.661 573.15L307.995 573.368Q315.667 555.087 322.966 536.653L360.464 536.85C373.235 508.011 384.487 478.291 396.423 449.088L438.006 348.912C434.305 344.787 430.719 340.438 427.486 335.938L433.561 335.738Z"/>
	<path fill="#CD7D48" transform="matrix(0.03125 0 0 0.03125 1.90735e-06 2.38419e-07)" d="M353.083 573.03C357.936 573.442 362.985 573.172 367.862 573.182C363.479 584.45 357.589 595.899 354.521 607.57C352.864 613.873 353.559 616.373 356.772 621.8L351.125 621.883Q341.749 621.908 332.373 621.805C340.748 607.032 346.525 588.897 353.083 573.03Z"/>
	<path fill="#CD7D48" transform="matrix(0.03125 0 0 0.03125 1.90735e-06 2.38419e-07)" d="M452.572 542.15C460.706 542.334 468.874 542.163 477.012 542.139L476.976 588.732C476.964 597.595 476.38 606.671 477.286 615.489C477.512 617.685 478.295 619.599 478.59 621.739L477.625 621.942L450.293 621.942C451.258 620.192 452.09 618.552 452.343 616.538C453.394 608.149 452.644 598.877 452.618 590.411L452.572 542.15Z"/>
	<path fill="#CD7D48" transform="matrix(0.03125 0 0 0.03125 1.90735e-06 2.38419e-07)" d="M327.877 544.484C366.915 544.97 406 544.49 445.047 544.732L445.029 565.488L439.125 565.475L320.495 565.412C323.383 558.655 325.623 551.478 327.877 544.484Z"/>
	<path fill="#1C2A33" transform="matrix(0.03125 0 0 0.03125 1.90735e-06 2.38419e-07)" d="M446.087 396.848C447.17 401.776 446.004 424.915 446 431.711L445.993 536.658L389.74 536.957C389.405 533.531 440.698 413.567 446.087 396.848Z"/>
	<path fill="#B63E33" transform="matrix(0.03125 0 0 0.03125 1.90735e-06 2.38419e-07)" d="M511.557 62.8182C515.599 64.7193 542.907 93.3072 547.724 98.0886L649.114 198.874Q685.034 234.014 720.428 269.685C731.393 280.614 743.151 291.103 753.476 302.62L753.396 363.006L514.019 129.771L511.427 127.327L272.484 360.823C271.845 340.932 272.149 320.899 272.016 300.989C280.381 291.432 290.182 282.602 299.181 273.62L346.889 225.907C401.743 171.523 457.263 117.757 511.557 62.8182Z"/>
	<path fill="#B63E33" transform="matrix(0.03125 0 0 0.03125 1.90735e-06 2.38419e-07)" d="M753.324 657.405C754.467 663.74 753.626 671.733 753.644 678.216L753.766 724.46C733.977 744.936 713.1 764.122 692.809 784.053L601.085 874.795Q556.315 917.737 512.305 961.457C489.112 939.408 466.897 916.249 444.043 893.838Q358.018 810.329 273.818 724.98L270.073 721.113C269.849 700.823 270.14 680.498 270.243 660.206L405.459 791.552C440.904 825.608 477.335 858.777 512.015 893.622Q587.699 821.798 661.991 748.536C692.58 718.321 722.546 687.415 753.324 657.405Z"/>
</svg>
