<?xml version="1.0" encoding="utf-8" ?>
<svg xmlns="http://www.w3.org/2000/svg" xmlns:xlink="http://www.w3.org/1999/xlink" width="32" height="32">
	<path fill="#19123C" transform="scale(0.03125 0.03125)" d="M0 0L1024 0L1024 1024L0 1024L0 0Z"/>
	<path fill="#9C2F8B" transform="scale(0.03125 0.03125)" d="M942.096 434.415C943.14 438.964 947.432 442.38 949.37 446.652C948.089 447.751 946.932 447.59 945.247 447.53C943.805 447.479 942.308 447.195 940.879 446.986C942.806 444.018 942.083 437.976 942.096 434.415Z"/>
	<path fill="#6A2688" transform="scale(0.03125 0.03125)" d="M949.37 446.652C950.097 448.192 950.837 449.722 951.47 451.304C949.893 453.151 948.141 454.98 946.852 457.04C944.303 456.139 943.549 453.544 941.046 452.45L939.247 448.252L940.879 446.986C942.308 447.195 943.805 447.479 945.247 447.53C946.932 447.59 948.089 447.751 949.37 446.652Z"/>
	<path fill="#6A2688" transform="scale(0.03125 0.03125)" d="M494.763 636.874C498.342 640.767 506.876 658.635 510.976 665.073L497.125 665.098L479.971 665.063C484.75 655.588 490.109 646.398 494.763 636.874Z"/>
	<path fill="#6A2688" transform="scale(0.03125 0.03125)" d="M748.769 607.651C751.099 609.4 752.681 609.095 755.487 608.867C755.588 617.538 754.127 623.838 751.245 631.985C755.492 632.032 759.746 632.029 763.991 632.14C761.886 636.405 758.393 643.216 758.557 647.977C758.064 648.96 757.543 649.325 757.884 650.413C755.993 654.527 752.054 657.607 750.239 661.818C751.896 663.531 752.927 664.773 753.806 667.012C753.877 667.195 753.943 667.38 754.012 667.564C745.234 657.414 738.34 645.507 731.256 634.151C737.109 625.374 743.655 616.884 748.769 607.651Z"/>
	<path fill="#FECBD0" transform="scale(0.03125 0.03125)" d="M296.458 369.017C310.029 369.565 323.892 369.409 337.479 369.197L337.381 383.727C334.188 388.652 339.05 391.64 330.11 393.591C324.391 394.839 317.734 392.296 311.851 393.116C309.191 393.487 306.862 395.49 304.341 396.341C301.812 397.194 299.422 397.775 296.935 398.824C296.172 400.205 295.973 402.113 294.956 403.248C294.619 398.006 293.781 373.191 295.1 369.494L296.458 369.017Z"/>
	<path fill="#6A2688" transform="scale(0.03125 0.03125)" d="M498.127 632.186L539.995 632.175C542.757 637.399 557.38 661.681 557.403 665.087C544.186 665.832 530.759 665.388 517.511 665.518C511.256 654.543 503.247 643.687 498.127 632.186Z"/>
	<path fill="#9C2F8B" transform="scale(0.03125 0.03125)" d="M681.418 632.065Q702.325 632.208 723.231 632.023C729.878 643.238 737.841 653.753 744.309 665.008C730.328 665.143 716.314 665.508 702.337 665.14C694.761 654.617 688.491 642.957 681.418 632.065Z"/>
	<path fill="#6A2688" transform="scale(0.03125 0.03125)" d="M319.618 661.756C322.872 663.54 335.178 688.019 337.717 692.635C334.672 698.048 330.935 703.238 327.6 708.488C320.212 720.118 312.8 731.809 305.978 743.78C301.556 739.595 290.635 716.567 287.476 709.917C291.634 705.336 295.07 699.486 298.482 694.332L319.618 661.756Z"/>
	<path fill="#6A2688" transform="scale(0.03125 0.03125)" d="M491.586 607.884C511.518 609.043 532.406 608.013 552.449 608.005C560.009 608.002 568.222 607.402 575.687 608.434C565.567 608.934 555.3 608.586 545.162 608.568L493.546 608.552C493.722 617.906 493.195 627.441 493.825 636.76Q483.947 651.119 473.433 665.019Q456.766 665.52 440.092 665.365C434.503 654.885 429.721 643.755 423.798 633.501L424.474 632.766C429.443 631.724 435.803 632.407 440.926 632.393Q458.191 632.43 475.454 632.174C480.446 623.939 485.824 615.6 491.586 607.884Z"/>
	<path fill="#9C2F8B" transform="scale(0.03125 0.03125)" d="M658.584 773.968L705.052 773.91C711.556 782.679 716.752 792.693 722.392 802.041C727.079 809.808 732.486 817.517 736.472 825.656Q711.967 825.982 687.46 825.967Q673.638 799.625 658.584 773.968Z"/>
	<path fill="#9C2F8B" transform="scale(0.03125 0.03125)" d="M499.185 772.24C505.886 771.525 512.873 771.894 519.614 771.895L554.328 771.921C559.232 778.879 564.051 786.94 567.829 794.584L566.565 796.119C571.422 806.279 578.139 816.212 584.035 825.829C566.969 826.167 549.857 825.971 532.786 825.998C522.278 808.675 511.939 790.725 499.996 774.356C502.732 774.377 505.463 774.223 508.195 774.094C504.967 774.058 502.469 772.463 499.185 772.24Z"/>
	<path fill="#19123C" transform="scale(0.03125 0.03125)" d="M499.185 772.24C505.886 771.525 512.873 771.894 519.614 771.895L554.328 771.921C559.232 778.879 564.051 786.94 567.829 794.584L566.565 796.119C562.084 788.918 557.968 781.481 553.766 774.114C538.635 774.178 523.308 774.725 508.195 774.094C504.967 774.058 502.469 772.463 499.185 772.24Z"/>
	<path fill="#9C2F8B" transform="scale(0.03125 0.03125)" d="M344.611 770.436C345.664 771.27 346.684 772.143 347.452 773.257C351.921 779.74 355.281 787.456 359.093 794.367C362.949 801.359 368.745 808.851 371.157 816.462L370.721 817.539C371.873 820.287 373.352 822.889 374.761 825.51L343.313 825.589C338.031 825.606 332.119 825.108 326.937 825.926C325.676 825.964 324.504 825.899 323.252 825.78C319.248 821.334 316.133 814.771 312.975 809.611C305.294 797.064 297.841 784.284 289.654 772.061C296.208 772.495 302.825 772.236 309.388 772.142C318.469 771.808 328.251 773.087 337.165 771.483C333.725 770.039 306.638 771.118 300.259 770.864C314.958 769.844 329.875 771.1 344.611 770.436Z"/>
	<path fill="#2D1351" transform="scale(0.03125 0.03125)" d="M344.611 770.436C345.664 771.27 346.684 772.143 347.452 773.257C351.921 779.74 355.281 787.456 359.093 794.367C362.949 801.359 368.745 808.851 371.157 816.462L370.721 817.539C360.821 803.384 352.921 787.235 344.149 772.326C332.628 772.521 320.894 772.705 309.388 772.142C318.469 771.808 328.251 773.087 337.165 771.483C333.725 770.039 306.638 771.118 300.259 770.864C314.958 769.844 329.875 771.1 344.611 770.436Z"/>
	<path fill="#471E6F" transform="scale(0.03125 0.03125)" d="M876.61 492.682L876.471 411.461C876.5 399.579 875.831 387.282 876.493 375.454C876.571 374.048 876.629 373.077 877.546 371.991C880.625 373.791 902.042 414.296 906.882 421.358C915.159 433.437 923.761 435.649 937.467 438.231Q906.318 464.651 876.61 492.682Z"/>
	<path fill="#6A2688" transform="scale(0.03125 0.03125)" d="M545.798 632.405C562.866 632.21 579.956 632.436 597.026 632.456C605.895 632.467 614.936 632.765 623.777 632.135C650.667 630.217 659.531 603.738 674.955 586.279L675.275 585.924C677.131 589.208 677.692 593.685 676.765 597.355C675.554 602.15 672.67 604.942 669.013 608.01C677.376 608.055 685.856 607.622 694.197 608.077C689.139 608.729 683.697 608.438 678.586 608.535C669.153 622.529 662.74 639.161 650.549 651.185Q649.422 652.283 648.225 653.303Q647.029 654.324 645.767 655.264Q644.505 656.203 643.185 657.057Q641.864 657.912 640.489 658.677Q639.115 659.442 637.693 660.115Q636.271 660.787 634.808 661.365Q633.345 661.942 631.847 662.422Q630.349 662.901 628.822 663.281C616.082 666.518 578.905 665.157 563.865 665.106Q554.969 648.68 545.798 632.405Z"/>
	<path fill="#471E6F" transform="scale(0.03125 0.03125)" d="M190.053 255.874Q208.755 283.237 227.035 310.883L227.072 329.196C226.76 339.024 226.981 348.881 227.007 358.713C227.019 362.997 227.602 368.634 226.591 372.756C218.551 380.599 211.349 389.211 204.004 397.696C199.51 402.886 194.655 407.995 190.554 413.491C190.518 420.087 191.205 427.693 190.066 434.183C189.666 428.58 190.071 422.82 189.939 417.192Q189.204 386.594 189.74 355.991C190.51 322.674 189.94 289.207 190.053 255.874Z"/>
	<path fill="#D5358C" transform="scale(0.03125 0.03125)" d="M717.096 669.084C729.738 669.16 742.542 668.615 755.153 669.416C756.692 672.324 758.348 675.119 760.085 677.913C752.15 688.346 705.957 768.885 703.496 770.54L659.047 770.554C662.538 763.881 666.704 757.429 670.46 750.89L696.261 705.883C703.343 693.693 710.715 681.665 717.096 669.084Z"/>
	<path fill="#471E6F" transform="scale(0.03125 0.03125)" d="M766.248 688.173C772.554 678.673 780.2 669.708 787.168 660.65C802.13 641.198 817.311 621.605 833.485 603.149C834.017 609.965 833.949 616.845 834.029 623.68C826.928 636.734 773.077 713.801 772.69 718.305C767.671 726.758 761.828 734.799 756.395 742.996C746.321 758.196 736.29 773.524 726.579 788.958C735.823 781.065 745.212 768.848 753.496 759.537C756.281 756.407 759.3 752.247 762.684 749.823L763.601 750.186L765.106 748.856C761.97 759.097 733.327 785.582 737.705 793.886C739.042 796.422 741.964 798.561 744.118 800.437C741.421 803.661 736.18 808.743 736.508 813.106C736.536 813.473 736.584 813.839 736.63 814.205C739.183 819.166 742.598 823.444 744.812 828.616C738.416 822.542 733.665 813.27 728.996 805.779C721.88 794.363 714.926 782.678 707.452 771.511C724.884 740.862 744.046 711.348 762.009 681.043L766.248 688.173Z"/>
	<path fill="#6A2688" transform="scale(0.03125 0.03125)" d="M141.443 708.093C157.651 707.588 174.004 708.086 190.226 708.104L281.883 708.051C288.691 719.537 297.811 734.294 302.794 746.509L161.763 746.554C154.643 734.025 148.156 720.857 141.443 708.093Z"/>
	<path fill="#D5358C" transform="scale(0.03125 0.03125)" d="M367.3 651.087C371.126 656.966 374.235 663.284 378.128 669.137C387.014 670.542 398.759 669.54 407.982 669.496Q377.421 720.672 344.611 770.436C329.875 771.1 314.958 769.844 300.259 770.864C296.896 770.689 293.436 770.909 290.065 770.966Q302.156 751.226 314.547 731.673C321.402 720.65 327.974 709.422 335.131 698.591C345.662 682.656 357.242 667.322 367.3 651.087Z"/>
	<path fill="#D5358C" transform="scale(0.03125 0.03125)" d="M560.191 669.053C579.307 669.909 598.755 669.153 617.904 669.051C616.558 672.655 613.692 676.328 611.632 679.632L598.022 701.469C583.439 724.922 569.51 748.852 554.328 771.921L519.614 771.895C512.873 771.894 505.886 771.525 499.185 772.24C500.742 767.811 503.588 763.482 505.898 759.406Q514.163 744.884 522.979 730.69Q541.983 700.112 560.191 669.053Z"/>
	<path fill="#F381AF" transform="scale(0.03125 0.03125)" d="M840.55 564.433C845.599 557.334 867.739 532.016 874.722 528.541L874.994 622.159C861.213 638.568 846.765 654.492 832.67 670.637L785.843 724.64C781.313 729.768 776.833 734.965 772.151 739.955C769.056 743.254 765.615 746.398 762.684 749.823C759.3 752.247 756.281 756.407 753.496 759.537C745.212 768.848 735.823 781.065 726.579 788.958C736.29 773.524 746.321 758.196 756.395 742.996C761.828 734.799 767.671 726.758 772.69 718.305Q792.212 689.714 810.979 660.622C819.214 648.128 828.084 635.798 835.504 622.801C835.499 605.614 834.801 588.029 835.972 570.881C837.39 569.136 840.072 566.61 840.55 564.433Z"/>
	<path fill="#D5358C" transform="scale(0.03125 0.03125)" d="M431.909 230.392C449.303 230.427 466.921 231.048 484.284 230.211Q452.635 282.114 421.593 334.382C414.69 345.948 407.516 357.347 400.713 368.973C387.568 369.289 374.383 369.069 361.234 369.027C359.005 372.393 356.815 375.791 354.387 379.018L339.854 379.029C339.882 377.991 340.013 376.97 340.548 376.059C344.269 369.732 348.858 363.704 352.768 357.444Q370.993 327.778 389.727 298.432C398.375 284.768 407.035 271.07 415.473 257.277C420.951 248.32 426.177 239.189 431.909 230.392Z"/>
	<path fill="#471E6F" transform="scale(0.03125 0.03125)" d="M441.117 668.913C450.782 668.695 460.535 668.417 470.196 668.805C466.411 673.608 463.443 679.241 460.269 684.469Q450.741 700.046 441.549 715.823L395.46 792.391C389.199 802.85 382.615 816.748 375.107 826.039C359.219 826.079 342.778 826.984 326.937 825.926C332.119 825.108 338.031 825.606 343.313 825.589L374.761 825.51C373.352 822.889 371.873 820.287 370.721 817.539L371.157 816.462C368.745 808.851 362.949 801.359 359.093 794.367C355.281 787.456 351.921 779.74 347.452 773.257C346.684 772.143 345.664 771.27 344.611 770.436Q377.421 720.672 407.982 669.496C398.759 669.54 387.014 670.542 378.128 669.137C385.981 668.501 394.079 668.924 401.96 668.945Q419.913 668.828 437.865 669C432.803 678.026 426.551 687.228 422.587 696.73Q431.926 682.871 441.117 668.913Z"/>
	<path fill="#471E6F" transform="scale(0.03125 0.03125)" d="M670.978 631.769C673.19 631.631 675.611 631.219 677.736 631.943C678.099 632.69 678.133 632.925 678.115 633.77C678.052 636.704 687.489 650.474 689.617 653.634C672.168 682.372 655.36 711.525 637.538 740.035L603.41 794.283C597.302 804.025 590.956 813.73 585.24 823.707C580.985 816.992 577.086 810.037 573.067 803.179C571.484 800.478 569.853 796.901 567.829 794.584C564.051 786.94 559.232 778.879 554.328 771.921C569.51 748.852 583.439 724.922 598.022 701.469L611.632 679.632C613.692 676.328 616.558 672.655 617.904 669.051C634.063 668.33 644.165 664.902 655.349 652.682C661.18 646.31 666.067 638.86 670.978 631.769Z"/>
	<defs>
		<linearGradient id="gradient_0" gradientUnits="userSpaceOnUse" x1="874.59918" y1="578.75818" x2="761.66974" y2="423.8085">
			<stop offset="0" stop-color="#FA98B1"/>
			<stop offset="1" stop-color="#FFD0DA"/>
		</linearGradient>
	</defs>
	<path fill="url(#gradient_0)" transform="scale(0.03125 0.03125)" d="M832.706 369.574C847.298 369.196 862.087 368.972 876.675 369.413C875.496 372.525 874.892 375.309 874.716 378.626C874.064 390.879 874.597 403.464 874.626 415.75Q874.914 454.197 874.589 492.643C874.576 493.562 874.361 493.767 874.976 494.445L876.61 492.682Q906.318 464.651 937.467 438.231L942.096 434.415C942.083 437.976 942.806 444.018 940.879 446.986L939.247 448.252Q916.715 474.81 895.474 502.41C890.294 509.016 880.118 523.411 874.722 528.541C867.739 532.016 845.599 557.334 840.55 564.433C836.428 568.372 832.898 573.322 829.378 577.804L811.321 601.055C795.677 621.154 779.204 640.942 764.329 661.6C762.217 657.889 760.235 653.97 757.884 650.413C757.543 649.325 758.064 648.96 758.557 647.977C758.393 643.216 761.886 636.405 763.991 632.14C759.746 632.029 755.492 632.032 751.245 631.985C754.127 623.838 755.588 617.538 755.487 608.867C760.485 607.292 777.362 608.93 784.236 608.186L782.02 607.823C784.033 603.194 785.298 598.425 787.732 593.937C790.966 587.977 796.183 582.436 798.344 576.017L801.701 571.537C811.127 561.746 825.103 545.804 832.604 534.88L835.429 531.791L835.388 426.791L835.463 392.461C835.474 386.767 835.899 380.672 835.31 375.022C835.102 373.032 833.746 371.244 832.706 369.574Z"/>
	<path fill="#19123C" transform="scale(0.03125 0.03125)" d="M784.236 608.186C786.332 608.055 788.392 607.997 790.493 608.043C779.905 621.387 768.869 634.42 758.557 647.977C758.393 643.216 761.886 636.405 763.991 632.14C759.746 632.029 755.492 632.032 751.245 631.985C754.127 623.838 755.588 617.538 755.487 608.867C760.485 607.292 777.362 608.93 784.236 608.186Z"/>
	<path fill="#471E6F" transform="scale(0.03125 0.03125)" d="M621.51 230.104C622.389 230.446 622.874 230.71 623.432 231.504C628.28 238.401 632.124 246.755 636.259 254.133C642.77 265.748 649.562 277.096 656.328 288.554C639.767 315.137 624.358 342.449 607.48 368.839C614.002 368.837 658.59 368.006 660.876 369.348C649.35 370.225 634.096 369.371 622.05 369.338L546.096 368.991C545.018 368.377 543.431 368.124 542.236 367.533C540.574 363.65 541.088 317.984 541.577 310.867C541.869 303.235 541.558 295.48 541.533 287.835C546.066 278.049 552.505 269.029 558.214 259.897C564.385 250.026 570.157 239.902 576.453 230.112C591.455 230.422 606.504 230.262 621.51 230.104Z"/>
	<path fill="#D5358C" transform="scale(0.03125 0.03125)" d="M621.51 230.104C616.353 241.1 608.119 252.385 601.851 262.965C582.2 296.132 561.541 328.725 541.951 361.92L541.889 328.685C541.882 322.92 542.332 316.578 541.577 310.867C541.869 303.235 541.558 295.48 541.533 287.835C546.066 278.049 552.505 269.029 558.214 259.897C564.385 250.026 570.157 239.902 576.453 230.112C591.455 230.422 606.504 230.262 621.51 230.104Z"/>
	<path fill="#D5358C" transform="scale(0.03125 0.03125)" d="M144.819 651.441Q142.637 650.552 140.491 649.578Q138.346 648.604 136.241 647.545Q134.135 646.486 132.074 645.345Q130.012 644.204 127.997 642.982Q125.982 641.76 124.017 640.46Q122.053 639.159 120.141 637.782Q118.229 636.404 116.373 634.952Q114.517 633.5 112.72 631.976Q110.924 630.451 109.189 628.857Q107.453 627.263 105.783 625.601Q104.112 623.939 102.509 622.213Q100.905 620.486 99.3714 618.697Q97.8375 616.908 96.3757 615.06Q94.9139 613.212 93.5263 611.308Q92.1388 609.403 90.8278 607.445Q89.5168 605.487 88.2843 603.479Q87.5087 602.22 86.7643 600.943Q86.0199 599.666 85.3071 598.37Q84.5943 597.075 83.9137 595.762Q83.233 594.45 82.5849 593.121Q81.9367 591.792 81.3215 590.448Q80.7063 589.104 80.1243 587.745Q79.5423 586.385 78.994 585.012Q78.4456 583.639 77.9312 582.253Q77.4168 580.867 76.9367 579.469Q76.4566 578.07 76.011 576.661Q75.5655 575.251 75.1548 573.831Q74.744 572.41 74.3684 570.98Q73.9927 569.55 73.6524 568.112Q73.3121 566.673 73.0072 565.226Q72.7024 563.779 72.4333 562.326Q72.1641 560.872 71.9309 559.412Q71.6976 557.952 71.5003 556.487Q71.3031 555.021 71.1419 553.552Q70.9808 552.082 70.8559 550.609Q70.7309 549.136 70.6423 547.66Q70.5537 546.184 70.5014 544.707Q70.4491 543.229 70.4332 541.751Q70.4173 540.272 70.4378 538.794Q70.4583 537.316 70.5152 535.838Q70.572 534.361 70.6653 532.885Q70.7585 531.41 70.888 529.937Q71.0175 528.464 71.1832 526.995Q71.3489 525.526 71.5507 524.061Q71.7525 522.597 71.9903 521.137Q72.2281 519.678 72.5017 518.225Q72.7754 516.772 73.0847 515.326Q73.394 513.881 73.7388 512.443Q74.9463 507.243 76.7762 502.228Q78.6061 497.214 81.0312 492.458C86.2259 482.273 142.932 387.746 144.599 386.718L145.042 387.353L145.163 446.691C145.181 457.523 145.6 468.532 145.05 479.346C144.449 505.657 145.109 532.04 144.984 558.364C136.279 565.593 131.676 573.496 130.686 584.859C129.785 595.206 131.141 606.139 134.287 616.023C135.35 619.361 136.979 622.604 137.929 625.943L145.411 630.158C145.417 634.389 146.256 648.64 144.819 651.441Z"/>
	<path fill="#471E6F" transform="scale(0.03125 0.03125)" d="M145.05 479.346C144.449 505.657 145.109 532.04 144.984 558.364C136.279 565.593 131.676 573.496 130.686 584.859C129.785 595.206 131.141 606.139 134.287 616.023C135.35 619.361 136.979 622.604 137.929 625.943C134.204 624.546 130.572 622.403 127.183 620.336C107.54 608.357 92.5195 590.197 87.1126 567.57Q86.6947 565.839 86.3627 564.09Q86.0307 562.34 85.7854 560.577Q85.54 558.813 85.3818 557.04Q85.2237 555.266 85.1532 553.487Q85.0827 551.708 85.0999 549.927Q85.1172 548.147 85.2223 546.369Q85.3273 544.592 85.5198 542.822Q85.7123 541.052 85.9919 539.293Q86.2714 537.535 86.6373 535.792Q87.0032 534.05 87.4546 532.327Q87.9059 530.605 88.4416 528.907Q88.9773 527.209 89.5961 525.539Q90.2149 523.869 90.9152 522.232Q91.6155 520.595 92.3957 518.995Q93.1759 517.394 94.034 515.834Q94.8921 514.274 95.8261 512.758C107.136 494.74 124.598 483.973 145.05 479.346Z"/>
	<path fill="#6A2688" transform="scale(0.03125 0.03125)" d="M939.247 448.252L941.046 452.45C943.549 453.544 944.303 456.139 946.852 457.04C952.606 464.621 956.647 474.119 961.892 482.174L911.528 546.776C904.115 556.405 895.982 565.862 889.124 575.877L889.015 632.486C889.004 645.595 890.094 660.076 887.364 672.905C884.934 684.323 879.935 695.314 873.413 704.966C864.123 718.716 850.594 731.763 839.501 744.36L787.315 803.86C776.475 816.282 765.429 828.432 755.176 841.359Q749.295 832.133 743.623 822.777C741.687 819.637 739.256 816.35 737.768 812.987L736.63 814.205C736.584 813.839 736.536 813.473 736.508 813.106C736.18 808.743 741.421 803.661 744.118 800.437C741.964 798.561 739.042 796.422 737.705 793.886C733.327 785.582 761.97 759.097 765.106 748.856L763.601 750.186L762.684 749.823C765.615 746.398 769.056 743.254 772.151 739.955C776.833 734.965 781.313 729.768 785.843 724.64L832.67 670.637C846.765 654.492 861.213 638.568 874.994 622.159L874.722 528.541C880.118 523.411 890.294 509.016 895.474 502.41Q916.715 474.81 939.247 448.252Z"/>
	<path fill="#19123C" transform="scale(0.03125 0.03125)" d="M939.247 448.252L941.046 452.45C942.979 457.577 945.661 462.353 948.272 467.159Q925.564 496.607 902.156 525.502C894.169 535.435 884.982 545.324 878.074 556.026L877.989 615.655C877.994 626.319 878.354 637.129 877.834 647.78C874.723 652.196 870.916 656.13 867.385 660.21L852.333 677.884C825.663 709.412 797.761 739.908 770.606 771.016C760.903 782.134 746.609 796.825 738.673 808.91C737.854 810.159 737.317 810.914 737.596 812.461C737.629 812.642 737.711 812.811 737.768 812.987L736.63 814.205C736.584 813.839 736.536 813.473 736.508 813.106C736.18 808.743 741.421 803.661 744.118 800.437C741.964 798.561 739.042 796.422 737.705 793.886C733.327 785.582 761.97 759.097 765.106 748.856L763.601 750.186L762.684 749.823C765.615 746.398 769.056 743.254 772.151 739.955C776.833 734.965 781.313 729.768 785.843 724.64L832.67 670.637C846.765 654.492 861.213 638.568 874.994 622.159L874.722 528.541C880.118 523.411 890.294 509.016 895.474 502.41Q916.715 474.81 939.247 448.252Z"/>
	<path fill="#471E6F" transform="scale(0.03125 0.03125)" d="M764.802 238.968Q780.557 239.242 796.314 239.272C802.952 239.296 809.726 239.031 816.344 239.555C829.783 260.019 840.034 282.446 853.64 302.765C839.794 326.988 825.131 351.094 810.125 374.621C807.87 372.521 805.83 370.7 803.007 369.38C787.545 369.13 771.947 368.755 756.496 369.353C760.273 377.346 758.572 394.443 758.494 403.642C738.254 421.384 717.133 438.172 696.767 455.797C690.194 461.486 683.093 466.996 676.913 473.088C677.012 475.924 677.038 478.789 677.239 481.617C672.994 483.291 665.761 481.782 661.06 482.068C659.816 482.037 658.543 481.843 657.302 481.722C658.512 481.73 659.724 481.808 660.895 481.457C661.793 481.188 662.366 480.041 662.818 479.264C668.575 469.388 673.509 459.02 679.051 449.018C683.402 441.167 688.381 433.641 692.593 425.727C695.525 426.218 698.525 426.592 701.377 427.441C699.462 423.837 698.337 419.503 696.742 415.698C693.822 408.731 690.201 401.988 687.747 394.839C686.214 390.49 683.925 386.404 682.518 382.009C681.634 379.247 681.387 377.919 682.753 375.292L729.217 297.237C740.891 277.737 752.369 257.991 764.802 238.968Z"/>
	<path fill="#D5358C" transform="scale(0.03125 0.03125)" d="M764.802 238.968Q780.557 239.242 796.314 239.272C802.952 239.296 809.726 239.031 816.344 239.555C813.39 245.605 809.519 251.308 805.929 256.997L789.76 282.655L738.355 366.202C730.151 379.608 721.854 393.015 713.871 406.551C710.585 412.123 705.348 423.218 701.377 427.441C699.462 423.837 698.337 419.503 696.742 415.698C693.822 408.731 690.201 401.988 687.747 394.839C686.214 390.49 683.925 386.404 682.518 382.009C681.634 379.247 681.387 377.919 682.753 375.292L729.217 297.237C740.891 277.737 752.369 257.991 764.802 238.968Z"/>
	<defs>
		<linearGradient id="gradient_1" gradientUnits="userSpaceOnUse" x1="698.59796" y1="618.04871" x2="801.54272" y2="370.22543">
			<stop offset="0" stop-color="#ED61A1"/>
			<stop offset="1" stop-color="#FFDFD7"/>
		</linearGradient>
	</defs>
	<path fill="url(#gradient_1)" transform="scale(0.03125 0.03125)" d="M756.496 369.353C771.947 368.755 787.545 369.13 803.007 369.38C805.83 370.7 807.87 372.521 810.125 374.621C814.961 383.267 829.206 404.796 831.425 412.557C833.319 419.181 831.975 429.718 831.981 436.841C831.99 447.99 831.496 532.285 832.604 534.88C825.103 545.804 811.127 561.746 801.701 571.537L798.344 576.017C796.183 582.436 790.966 587.977 787.732 593.937C785.298 598.425 784.033 603.194 782.02 607.823L784.236 608.186C777.362 608.93 760.485 607.292 755.487 608.867C752.681 609.095 751.099 609.4 748.769 607.651C751.381 602.275 756.208 597.924 758.492 592.642L758.824 564.217Q740.907 590.772 723.539 617.688L717.574 608.039L694.197 608.077C685.856 607.622 677.376 608.055 669.013 608.01C672.67 604.942 675.554 602.15 676.765 597.355C677.692 593.685 677.131 589.208 675.275 585.924C677.361 582.567 677.91 580.507 678.032 576.624C675.791 575.326 673.624 573.422 671.542 571.858C672.717 570.31 674.456 568.766 675.331 567.035C676.719 564.286 675.714 561.839 674.824 559.096C675.871 557.486 676.805 555.848 677.711 554.156L677.418 553.053L671.496 552.877L671.753 552.233C670.721 547.143 659.812 532.555 656.789 526.5Q667.451 507.646 676.223 487.843L677.461 487.489C677.487 485.506 677.448 483.59 677.239 481.617C677.038 478.789 677.012 475.924 676.913 473.088C683.093 466.996 690.194 461.486 696.767 455.797C717.133 438.172 738.254 421.384 758.494 403.642C758.572 394.443 760.273 377.346 756.496 369.353Z"/>
	<path fill="#6A2688" transform="scale(0.03125 0.03125)" d="M677.711 554.156C678.9 561.203 678.088 569.442 678.032 576.624C675.791 575.326 673.624 573.422 671.542 571.858C672.717 570.31 674.456 568.766 675.331 567.035C676.719 564.286 675.714 561.839 674.824 559.096C675.871 557.486 676.805 555.848 677.711 554.156Z"/>
	<path fill="#471E6F" transform="scale(0.03125 0.03125)" d="M748.769 607.651C751.381 602.275 756.208 597.924 758.492 592.642C758.415 599.185 757.491 602.956 752.651 607.673L752.249 608.06C761.91 608.077 772.457 608.962 782.02 607.823L784.236 608.186C777.362 608.93 760.485 607.292 755.487 608.867C752.681 609.095 751.099 609.4 748.769 607.651Z"/>
	<path fill="#19123C" transform="scale(0.03125 0.03125)" d="M801.274 374.06C802.809 377.263 801.45 550.324 801.701 571.537L798.344 576.017C797.552 564.937 798.436 553.143 798.471 542.005L798.461 472.79L798.41 410.922C798.409 401.022 797.583 390.411 798.666 380.618C798.901 378.496 800.382 376.002 801.274 374.06Z"/>
	<path fill="#6A2688" transform="scale(0.03125 0.03125)" d="M676.223 487.843L677.461 487.489C677.553 494.646 679.019 549.589 677.418 553.053L671.496 552.877L671.753 552.233C670.721 547.143 659.812 532.555 656.789 526.5Q667.451 507.646 676.223 487.843Z"/>
	<path fill="#19123C" transform="scale(0.03125 0.03125)" d="M721.386 460.715L758.562 428.913L758.726 498.656C758.755 509.836 759.572 521.606 758.572 532.698C758.411 534.476 757.932 536.02 757.275 537.67C756.181 529.215 757.129 519.699 757.16 511.14L757.058 458.836C747.353 467.651 732.606 479.743 724.414 489.142L724.298 583.037C723.323 584.925 721.774 586.76 720.553 588.517C721.3 570.286 720.958 551.944 720.983 533.696L721.386 460.715Z"/>
	<path fill="#6A2688" transform="scale(0.03125 0.03125)" d="M757.058 458.836L757.16 511.14C757.129 519.699 756.181 529.215 757.275 537.67C752.917 548.473 732.57 572.984 724.298 583.037L724.414 489.142C732.606 479.743 747.353 467.651 757.058 458.836Z"/>
	<path fill="#6A2688" transform="scale(0.03125 0.03125)" d="M803.007 369.38C805.83 370.7 807.87 372.521 810.125 374.621C814.961 383.267 829.206 404.796 831.425 412.557C833.319 419.181 831.975 429.718 831.981 436.841C831.99 447.99 831.496 532.285 832.604 534.88C825.103 545.804 811.127 561.746 801.701 571.537C801.45 550.324 802.809 377.263 801.274 374.06L803.007 369.38Z"/>
	<defs>
		<linearGradient id="gradient_2" gradientUnits="userSpaceOnUse" x1="66.761322" y1="606.64929" x2="310.79623" y2="409.38455">
			<stop offset="0" stop-color="#F39CB3"/>
			<stop offset="1" stop-color="#FFD1D8"/>
		</linearGradient>
	</defs>
	<path fill="url(#gradient_2)" transform="scale(0.03125 0.03125)" d="M187.477 252.525L187.643 312.206C187.676 323.14 187.279 334.229 187.927 345.131C189.102 346.51 188.94 349.266 188.781 351.093C188.463 354.74 188.723 358.344 188.812 361.998L189.072 353.561L189.352 353.379L189.74 355.991Q189.204 386.594 189.939 417.192C190.071 422.82 189.666 428.58 190.066 434.183C191.205 427.693 190.518 420.087 190.554 413.491C194.655 407.995 199.51 402.886 204.004 397.696C211.349 389.211 218.551 380.599 226.591 372.756C226.182 397.074 226.825 421.347 226.974 445.657C227.074 461.99 226.51 478.467 227.085 494.778C226.817 518.199 226.998 541.638 227.008 565.061C227.014 578.041 226.254 591.563 227.173 604.49L225.334 606.923C225.46 607.709 225.288 607.459 225.586 607.797C240.117 608.823 259.251 608.323 273.959 607.952C273.981 616.689 274.232 625.495 273.903 634.223C275.242 639.145 277.474 643.993 279.33 648.751C285.952 648.73 292.601 648.576 299.214 648.964C296.531 643.574 293.744 638.223 292.313 632.338L293.225 632.478C296.145 637.641 299.198 644.73 303.282 648.999L303.852 650.508L310.773 650.536C302.51 662.347 295.158 674.893 286.706 686.518C234.06 686.469 181.352 687.106 128.716 686.538Q138.236 672.017 148.01 657.666C147.928 655.684 147.806 653.695 147.774 651.711C147.498 652.888 147.335 653.856 147.361 655.07C147.377 655.837 147.368 656.349 147.249 657.124C146.555 655.632 146.863 654.639 147.009 653.02L146.499 652.661L145.409 653.419L144.819 651.441C146.256 648.64 145.417 634.389 145.411 630.158L137.929 625.943C136.979 622.604 135.35 619.361 134.287 616.023C131.141 606.139 129.785 595.206 130.686 584.859C131.676 573.496 136.279 565.593 144.984 558.364C145.109 532.04 144.449 505.657 145.05 479.346C145.6 468.532 145.181 457.523 145.163 446.691L145.042 387.353L146.01 386.801C146.812 387.651 146.848 388.106 147.342 389.101C147.404 389.226 147.503 389.328 147.584 389.441C147.931 377.345 147.649 365.177 147.632 353.075L147.611 289.255Q167.101 270.409 187.477 252.525Z"/>
	<path fill="#19123C" transform="scale(0.03125 0.03125)" d="M145.042 387.353L146.01 386.801C146.812 387.651 146.848 388.106 147.342 389.101C147.404 389.226 147.503 389.328 147.584 389.441C148.198 401.843 147.858 414.395 147.892 426.812L147.768 503.771L147.761 583.77C147.863 606.399 148.222 629.087 147.774 651.711C147.498 652.888 147.335 653.856 147.361 655.07C147.377 655.837 147.368 656.349 147.249 657.124C146.555 655.632 146.863 654.639 147.009 653.02L146.499 652.661L145.409 653.419L144.819 651.441C146.256 648.64 145.417 634.389 145.411 630.158L137.929 625.943C136.979 622.604 135.35 619.361 134.287 616.023C131.141 606.139 129.785 595.206 130.686 584.859C131.676 573.496 136.279 565.593 144.984 558.364C145.109 532.04 144.449 505.657 145.05 479.346C145.6 468.532 145.181 457.523 145.163 446.691L145.042 387.353Z"/>
	<path fill="#19123C" transform="scale(0.03125 0.03125)" d="M187.927 345.131C189.102 346.51 188.94 349.266 188.781 351.093C188.463 354.74 188.723 358.344 188.812 361.998L189.072 353.561L189.352 353.379L189.74 355.991Q189.204 386.594 189.939 417.192C190.071 422.82 189.666 428.58 190.066 434.183L190.005 566.181C189.997 593.566 189.535 621.034 190.012 648.412C194.941 648.433 200.05 648.193 204.958 648.527C214.432 647.925 224.173 648.322 233.679 648.262C231.063 643.632 229.08 638.572 227.062 633.657C224.613 628.653 227.523 614.694 225.586 607.797C240.117 608.823 259.251 608.323 273.959 607.952C273.981 616.689 274.232 625.495 273.903 634.223C275.242 639.145 277.474 643.993 279.33 648.751C285.952 648.73 292.601 648.576 299.214 648.964C296.531 643.574 293.744 638.223 292.313 632.338L293.225 632.478C296.145 637.641 299.198 644.73 303.282 648.999L303.852 650.508L232.556 650.573C219.552 650.597 206.48 650.887 193.485 650.488C191.514 650.664 189.463 650.559 187.482 650.568L187.528 439.369L187.685 377.888C187.709 367.03 187.22 355.946 187.927 345.131Z"/>
	<path fill="#6A2688" transform="scale(0.03125 0.03125)" d="M228.044 633.006L228.472 632.204C234.569 632.202 267.25 631.351 270.942 632.601C271.514 633.272 271.788 633.636 272.134 634.469L277.278 648.498L235.726 648.478C232.828 643.482 230.436 638.254 228.044 633.006Z"/>
	<path fill="#19123C" transform="scale(0.03125 0.03125)" d="M225.586 607.797C240.117 608.823 259.251 608.323 273.959 607.952C273.981 616.689 274.232 625.495 273.903 634.223L272.134 634.469C271.788 633.636 271.514 633.272 270.942 632.601C267.25 631.351 234.569 632.202 228.472 632.204L228.044 633.006L227.062 633.657C224.613 628.653 227.523 614.694 225.586 607.797Z"/>
	<path fill="#6A2688" transform="scale(0.03125 0.03125)" d="M190.554 413.491C194.655 407.995 199.51 402.886 204.004 397.696C211.349 389.211 218.551 380.599 226.591 372.756C226.182 397.074 226.825 421.347 226.974 445.657C227.074 461.99 226.51 478.467 227.085 494.778C226.817 518.199 226.998 541.638 227.008 565.061C227.014 578.041 226.254 591.563 227.173 604.49L225.334 606.923C225.46 607.709 225.288 607.459 225.586 607.797C227.523 614.694 224.613 628.653 227.062 633.657C229.08 638.572 231.063 643.632 233.679 648.262C224.173 648.322 214.432 647.925 204.958 648.527C200.05 648.193 194.941 648.433 190.012 648.412C189.535 621.034 189.997 593.566 190.005 566.181L190.066 434.183C191.205 427.693 190.518 420.087 190.554 413.491Z"/>
	<path fill="#6A2688" transform="scale(0.03125 0.03125)" d="M272.724 302.508L273.403 301.4L274.188 301.3C278.385 304.706 283.893 314.961 287.043 319.712C292.724 328.281 298.872 336.598 304.622 345.139C309.757 352.764 314.624 361.269 320.683 368.166Q308.685 368.118 296.695 368.55L296.458 369.017L295.1 369.494C293.781 373.191 294.619 398.006 294.956 403.248C295.973 402.113 296.172 400.205 296.935 398.824C299.422 397.775 301.812 397.194 304.341 396.341C306.862 395.49 309.191 393.487 311.851 393.116C317.734 392.296 324.391 394.839 330.11 393.591C339.05 391.64 334.188 388.652 337.381 383.727Q337.422 393.517 336.905 403.294C338.052 401.791 339.374 400.297 340.259 398.629C339.506 392.167 340.207 385.537 339.854 379.029L354.387 379.018C356.815 375.791 359.005 372.393 361.234 369.027C374.383 369.069 387.568 369.289 400.713 368.973C402.369 368.996 403.606 368.663 404.922 369.716L405.057 370.881C408.037 373.866 407.624 376.896 407.618 380.919C407.595 395.813 406.88 410.861 407.437 425.739Q416.236 425.973 425.038 426.024C425.011 436.227 424.416 446.859 425.401 457.009C425.397 467.734 424.547 479.277 425.58 489.905C425.282 514.053 425.553 538.231 425.582 562.382C425.596 574.47 426.982 593.812 424.151 604.95C424.12 605.069 424.124 605.195 424.111 605.317C423.389 606.142 422.839 606.775 422.276 607.723C422.825 607.95 423.326 608.166 423.905 608.303C422.356 613.254 423.689 627.388 423.463 633.476L421.619 639.86C425.889 648.335 430.019 656.932 434.83 665.115Q407.512 665.371 380.193 665.322C373.164 654.859 367.635 642.923 361.135 632.05L362.76 638.854C357.149 647.585 351.766 656.713 345.69 665.11C339.2 665.162 332.699 665.294 326.209 665.226Q320.43 655.482 315.135 645.467L312.103 649.046L303.282 648.999C299.198 644.73 296.145 637.641 293.225 632.478L292.313 632.338C293.744 638.223 296.531 643.574 299.214 648.964C292.601 648.576 285.952 648.73 279.33 648.751C277.474 643.993 275.242 639.145 273.903 634.223C274.232 625.495 273.981 616.689 273.959 607.952C259.251 608.323 240.117 608.823 225.586 607.797C225.288 607.459 225.46 607.709 225.334 606.923L227.173 604.49C226.254 591.563 227.014 578.041 227.008 565.061C226.998 541.638 226.817 518.199 227.085 494.778C226.51 478.467 227.074 461.99 226.974 445.657C226.825 421.347 226.182 397.074 226.591 372.756C227.602 368.634 227.019 362.997 227.007 358.713C226.981 348.881 226.76 339.024 227.072 329.196C227.112 329.334 227.156 329.47 227.194 329.608C229.007 336.338 227.637 362.29 227.735 371.157C227.83 370.91 227.918 370.66 228.018 370.415C229.242 367.437 238.25 353.274 240.824 351.909C244.156 348.423 246.969 342.76 249.648 338.62L272.724 302.508Z"/>
	<path fill="#2D1351" transform="scale(0.03125 0.03125)" d="M292.627 605.057C291.214 595.839 292.302 581.038 292.335 571.32L292.25 507.626L292.079 411.153L292.16 384.505C292.174 379.33 291.82 373.873 292.524 368.748C293.947 368.235 295.208 368.461 296.695 368.55L296.458 369.017L295.1 369.494C293.781 373.191 294.619 398.006 294.956 403.248C294.132 419.609 294.838 436.335 294.856 452.729L294.992 549.004L295.015 580.953C295.013 587.055 295.375 593.442 294.719 599.499C294.472 601.775 293.84 603.128 292.627 605.057Z"/>
	<path fill="#19123C" transform="scale(0.03125 0.03125)" d="M292.163 608.514Q316.144 608.649 340.125 608.45C340.373 616.389 340.003 624.323 340.186 632.255C324.619 632.338 308.758 631.712 293.225 632.478L292.313 632.338C292.408 624.432 292.712 616.408 292.163 608.514Z"/>
	<path fill="#19123C" transform="scale(0.03125 0.03125)" d="M368.008 608.414C381.53 608.435 395.155 608.792 408.664 608.304L409.502 608.696C410.9 612.697 410.016 627.17 410.034 632.035L361.634 632.395L361.522 608.562C363.687 608.599 365.846 608.495 368.008 608.414Z"/>
	<path fill="#D5358C" transform="scale(0.03125 0.03125)" d="M272.724 302.508C273.72 315.173 272.845 328.443 272.811 341.184C272.769 356.803 273.551 372.95 272.316 388.486C270.725 386.028 269.111 384.382 266.538 382.956C265.831 380.74 264.985 378.845 263.624 376.956C259.93 372.322 256.302 368.995 250.087 368.386C244.243 367.814 238.514 369.559 234.077 373.415C232.317 374.945 231.018 376.77 229.692 378.664C229.357 378.156 229.285 378.105 229.062 377.439C226.56 369.979 237.143 358.126 240.824 351.909C244.156 348.423 246.969 342.76 249.648 338.62L272.724 302.508Z"/>
	<path fill="#F381AF" transform="scale(0.03125 0.03125)" d="M227.072 329.196C227.112 329.334 227.156 329.47 227.194 329.608C229.007 336.338 227.637 362.29 227.735 371.157C227.83 370.91 227.918 370.66 228.018 370.415C229.242 367.437 238.25 353.274 240.824 351.909C237.143 358.126 226.56 369.979 229.062 377.439C229.285 378.105 229.357 378.156 229.692 378.664C231.018 376.77 232.317 374.945 234.077 373.415C238.514 369.559 244.243 367.814 250.087 368.386C256.302 368.995 259.93 372.322 263.624 376.956C264.985 378.845 265.831 380.74 266.538 382.956C269.111 384.382 270.725 386.028 272.316 388.486L271.729 389.113C273.648 395.458 272.494 433.828 272.496 442.749L272.59 539.886C272.587 561.683 272.152 583.563 273.08 605.34L272.747 605.767L273.959 607.952C259.251 608.323 240.117 608.823 225.586 607.797C225.288 607.459 225.46 607.709 225.334 606.923L227.173 604.49C226.254 591.563 227.014 578.041 227.008 565.061C226.998 541.638 226.817 518.199 227.085 494.778C226.51 478.467 227.074 461.99 226.974 445.657C226.825 421.347 226.182 397.074 226.591 372.756C227.602 368.634 227.019 362.997 227.007 358.713C226.981 348.881 226.76 339.024 227.072 329.196Z"/>
	<path fill="#19123C" transform="scale(0.03125 0.03125)" d="M227.072 329.196C227.112 329.334 227.156 329.47 227.194 329.608C229.007 336.338 227.637 362.29 227.735 371.157C227.83 370.91 227.918 370.66 228.018 370.415C229.242 367.437 238.25 353.274 240.824 351.909C237.143 358.126 226.56 369.979 229.062 377.439C229.285 378.105 229.357 378.156 229.692 378.664C231.018 376.77 232.317 374.945 234.077 373.415C238.514 369.559 244.243 367.814 250.087 368.386C256.302 368.995 259.93 372.322 263.624 376.956C264.985 378.845 265.831 380.74 266.538 382.956C269.111 384.382 270.725 386.028 272.316 388.486L271.729 389.113C273.648 395.458 272.494 433.828 272.496 442.749L272.59 539.886C272.587 561.683 272.152 583.563 273.08 605.34L272.747 605.767C271.709 604.289 270.705 602.844 270.403 601.025C269.533 595.783 269.931 590.032 269.935 584.733L269.968 556.569L269.998 447.566L270.037 414.778C270.044 408.46 270.467 401.776 269.717 395.517C264.644 399.006 260.716 404.459 256.114 408.559C247.588 416.156 238.483 423.12 229.611 430.304L229.546 443.858L229.568 550.398L229.576 582.924C229.572 588.417 229.975 594.283 229.419 599.729C229.221 601.677 228.244 602.919 227.173 604.49C226.254 591.563 227.014 578.041 227.008 565.061C226.998 541.638 226.817 518.199 227.085 494.778C226.51 478.467 227.074 461.99 226.974 445.657C226.825 421.347 226.182 397.074 226.591 372.756C227.602 368.634 227.019 362.997 227.007 358.713C226.981 348.881 226.76 339.024 227.072 329.196Z"/>
	<path fill="#9C2F8B" transform="scale(0.03125 0.03125)" d="M266.538 382.956C269.111 384.382 270.725 386.028 272.316 388.486L271.729 389.113C270.877 390.944 270.292 393.863 268.984 395.288C267.994 395.972 267.304 396.382 266.125 396.645C265.483 392.52 266.481 387.231 266.538 382.956Z"/>
	<path fill="#FECBD0" transform="scale(0.03125 0.03125)" d="M229.692 378.664C231.018 376.77 232.317 374.945 234.077 373.415C238.514 369.559 244.243 367.814 250.087 368.386C256.302 368.995 259.93 372.322 263.624 376.956C264.151 384.585 261.266 391.433 256.315 397.139C253.139 400.799 248.843 404.277 243.821 404.598C240.685 404.799 237.728 403.706 235.445 401.554C231.138 397.494 228.93 389.608 228.93 383.752C228.929 381.988 229.155 380.34 229.692 378.664Z"/>
	<defs>
		<linearGradient id="gradient_3" gradientUnits="userSpaceOnUse" x1="330.28897" y1="615.40411" x2="380.79941" y2="364.33252">
			<stop offset="0" stop-color="#E7509D"/>
			<stop offset="1" stop-color="#FFD2D2"/>
		</linearGradient>
	</defs>
	<path fill="url(#gradient_3)" transform="scale(0.03125 0.03125)" d="M400.713 368.973C402.369 368.996 403.606 368.663 404.922 369.716L405.057 370.881C408.037 373.866 407.624 376.896 407.618 380.919C407.595 395.813 406.88 410.861 407.437 425.739L407.05 540.851L406.956 580.496C406.961 586.604 406.586 593.01 407.059 599.092C407.232 601.309 408.096 602.889 409.014 604.859C409.384 605.655 409.259 605.369 409.346 606.406L410.271 607.656C409.712 607.938 409.273 608.136 408.664 608.304C395.155 608.792 381.53 608.435 368.008 608.414C364.795 608.103 361.489 608.109 358.26 607.973C359.92 606.451 361.471 605.02 362.783 603.169C361.476 595.374 362.465 580.744 362.452 572.289C362.415 548.971 362.157 525.618 362.497 502.303C361.825 495.379 361.973 487.318 362.46 480.367C362.1 474.649 362.337 468.776 362.32 463.043L362.399 428.06L361.921 426.626C360.006 427.979 344.139 451.387 342.106 455.109C340.963 457.202 340.068 459.399 339.645 461.755C338.901 465.903 339.221 470.438 339.219 474.64C339.216 483.858 339.606 493.438 338.911 502.617L338.787 567.287C338.765 579.623 338.074 592.42 339.298 604.695C339.373 605.455 339.353 605.123 339.321 605.999C339.633 606.535 339.678 606.903 339.782 607.506C337.421 608.879 296.815 608.238 291.422 607.882C291.276 606.7 292.009 606.041 292.627 605.057C293.84 603.128 294.472 601.775 294.719 599.499C295.375 593.442 295.013 587.055 295.015 580.953L294.992 549.004L294.856 452.729C294.838 436.335 294.132 419.609 294.956 403.248C295.973 402.113 296.172 400.205 296.935 398.824C299.422 397.775 301.812 397.194 304.341 396.341C306.862 395.49 309.191 393.487 311.851 393.116C317.734 392.296 324.391 394.839 330.11 393.591C339.05 391.64 334.188 388.652 337.381 383.727Q337.422 393.517 336.905 403.294C338.052 401.791 339.374 400.297 340.259 398.629C339.506 392.167 340.207 385.537 339.854 379.029L354.387 379.018C356.815 375.791 359.005 372.393 361.234 369.027C374.383 369.069 387.568 369.289 400.713 368.973Z"/>
	<path fill="#6A2688" transform="scale(0.03125 0.03125)" d="M339.854 379.029L354.387 379.018C351.117 383.572 347.493 388.116 344.645 392.936C343.246 394.859 341.853 396.862 340.259 398.629C339.506 392.167 340.207 385.537 339.854 379.029Z"/>
	<path fill="#19123C" transform="scale(0.03125 0.03125)" d="M337.038 491.742C338.07 495.261 337.369 498.882 337.867 502.485C337.925 500.725 337.738 498.482 338.404 496.845C338.674 498.773 338.82 500.672 338.911 502.617L338.787 567.287C338.765 579.623 338.074 592.42 339.298 604.695C339.373 605.455 339.353 605.123 339.321 605.999C338.04 604.194 337.078 602.723 336.841 600.478C336.359 595.899 336.67 591.009 336.702 586.404L336.864 562.287L337.038 491.742Z"/>
	<path fill="#19123C" transform="scale(0.03125 0.03125)" d="M405.057 370.881C408.037 373.866 407.624 376.896 407.618 380.919C407.595 395.813 406.88 410.861 407.437 425.739L407.05 540.851L406.956 580.496C406.961 586.604 406.586 593.01 407.059 599.092C407.232 601.309 408.096 602.889 409.014 604.859C409.384 605.655 409.259 605.369 409.346 606.406Q408.324 605.543 407.368 604.608C405.515 602.759 405.015 600.797 404.799 598.256C404.046 589.397 404.622 580.146 404.63 571.229L404.702 518.001C404.767 468.989 404.171 419.879 405.057 370.881Z"/>
	<path fill="#2D1351" transform="scale(0.03125 0.03125)" d="M364.499 392.226C364.469 407.033 364.667 421.877 364.384 436.679L364.596 539.683C364.583 558.339 365.114 577.2 364.437 595.832C364.638 598.79 364.29 600.622 362.783 603.169C361.476 595.374 362.465 580.744 362.452 572.289C362.415 548.971 362.157 525.618 362.497 502.303C361.825 495.379 361.973 487.318 362.46 480.367C362.1 474.649 362.337 468.776 362.32 463.043L362.399 428.06L361.921 426.626C360.006 427.979 344.139 451.387 342.106 455.109C340.963 457.202 340.068 459.399 339.645 461.755C338.901 465.903 339.221 470.438 339.219 474.64C339.216 483.858 339.606 493.438 338.911 502.617C338.82 500.672 338.674 498.773 338.404 496.845C337.738 498.482 337.925 500.725 337.867 502.485C337.369 498.882 338.07 495.261 337.038 491.742C336.226 485.712 336.865 478.72 336.899 472.623L337.129 432.505C343.8 422.921 350.629 413.413 357.029 403.645C359.79 400.044 362.077 396.06 364.499 392.226Z"/>
	<path fill="#19123C" transform="scale(0.03125 0.03125)" d="M362.399 428.06C363.526 428.132 363.127 427.904 363.72 428.447C364.018 431.184 363.788 433.825 363.851 436.557C363.856 443.446 365.211 476.912 362.925 480.303L362.46 480.367C362.1 474.649 362.337 468.776 362.32 463.043L362.399 428.06Z"/>
	<defs>
		<linearGradient id="gradient_4" gradientUnits="userSpaceOnUse" x1="545.0675" y1="612.87793" x2="561.34973" y2="276.129">
			<stop offset="0" stop-color="#EB5CA1"/>
			<stop offset="1" stop-color="#FFF7E5"/>
		</linearGradient>
	</defs>
	<path fill="url(#gradient_4)" transform="scale(0.03125 0.03125)" d="M484.284 230.211C491.472 243.039 498.492 256.062 505.483 269.005C508.06 273.776 514.295 287.95 517.618 290.991Q528.126 281.751 539.161 273.149C539.328 278.612 539.241 284.112 539.264 289.58L541.533 287.835C541.558 295.48 541.869 303.235 541.577 310.867C541.088 317.984 540.574 363.65 542.236 367.533C543.431 368.124 545.018 368.377 546.096 368.991L622.05 369.338C634.096 369.371 649.35 370.225 660.876 369.348L684.509 369.474L681.893 374.484L682.753 375.292C681.387 377.919 681.634 379.247 682.518 382.009C683.925 386.404 686.214 390.49 687.747 394.839C690.201 401.988 693.822 408.731 696.742 415.698C698.337 419.503 699.462 423.837 701.377 427.441C698.525 426.592 695.525 426.218 692.593 425.727C688.381 433.641 683.402 441.167 679.051 449.018C673.509 459.02 668.575 469.388 662.818 479.264C662.366 480.041 661.793 481.188 660.895 481.457C659.724 481.808 658.512 481.73 657.302 481.722C658.543 481.843 659.816 482.037 661.06 482.068C665.761 481.782 672.994 483.291 677.239 481.617C677.448 483.59 677.487 485.506 677.461 487.489L676.223 487.843Q667.451 507.646 656.789 526.5C659.812 532.555 670.721 547.143 671.753 552.233L671.496 552.877L677.418 553.053L677.711 554.156C676.805 555.848 675.871 557.486 674.824 559.096Q668.482 567.765 662.584 576.742C653.401 590.606 644.51 604.91 626.837 607.81C619.758 608.972 612.323 608.531 605.162 608.509L575.687 608.434C568.222 607.402 560.009 608.002 552.449 608.005C532.406 608.013 511.518 609.043 491.586 607.884C485.824 615.6 480.446 623.939 475.454 632.174Q458.191 632.43 440.926 632.393C435.803 632.407 429.443 631.724 424.474 632.766L423.798 633.501L423.463 633.476C423.689 627.388 422.356 613.254 423.905 608.303C423.326 608.166 422.825 607.95 422.276 607.723C422.839 606.775 423.389 606.142 424.111 605.317C424.124 605.195 424.12 605.069 424.151 604.95C426.982 593.812 425.596 574.47 425.582 562.382C425.553 538.231 425.282 514.053 425.58 489.905C424.547 479.277 425.397 467.734 425.401 457.009C424.416 446.859 425.011 436.227 425.038 426.024Q416.236 425.973 407.437 425.739C406.88 410.861 407.595 395.813 407.618 380.919C407.624 376.896 408.037 373.866 405.057 370.881L404.922 369.716C403.606 368.663 402.369 368.996 400.713 368.973C407.516 357.347 414.69 345.948 421.593 334.382Q452.635 282.114 484.284 230.211Z"/>
	<path fill="#FECBD0" transform="scale(0.03125 0.03125)" d="M517.618 290.991Q528.126 281.751 539.161 273.149C539.328 278.612 539.241 284.112 539.264 289.58L539.255 334.87C537.709 332.238 538.72 282.037 538.286 275.017C529.913 281.814 521.78 288.77 513.717 295.929L513.894 296.223C514.078 296.224 514.261 296.218 514.445 296.226C515.653 296.279 516.837 296.532 518.024 296.751L518.906 295.914C519.408 299.543 520.199 302.582 518.566 306.013C517.844 305.414 517.689 304.877 517.309 304.038C515.766 303.793 514.864 304.083 513.575 304.986C512.093 306.025 509.359 308.951 507.669 309.267L507.16 308.538C506.176 309.199 505.708 309.323 505.423 310.536C503.915 316.967 505.406 348.179 504.041 349.83C503.57 344.638 503.931 339.067 503.913 333.828L503.801 303.027C508.382 299.009 513.22 295.203 517.618 290.991Z"/>
	<path fill="#19123C" transform="scale(0.03125 0.03125)" d="M425.401 457.009C426.137 443.542 425.211 429.85 425.616 416.341C425.66 414.868 425.602 413.006 426.707 411.972L427.494 413.337L427.531 452.048C427.536 459.111 427.789 466.275 427.433 473.327C428.03 515.795 427.756 558.365 427.569 600.839C426.491 602.451 425.456 603.917 424.111 605.317C424.124 605.195 424.12 605.069 424.151 604.95C426.982 593.812 425.596 574.47 425.582 562.382C425.553 538.231 425.282 514.053 425.58 489.905C424.547 479.277 425.397 467.734 425.401 457.009Z"/>
	<path fill="#471E6F" transform="scale(0.03125 0.03125)" d="M572.726 550.381C575.83 548.088 577.782 544.751 580.54 542.105C584.335 548.87 588.593 555.849 591.28 563.143C592.019 563.321 592.748 563.504 593.495 563.646C597.048 564.322 602.886 566.599 605.118 569.518C594.646 570.861 583.351 570.095 572.784 570.083C572.848 563.529 573.076 556.927 572.726 550.381Z"/>
	<path fill="#19123C" transform="scale(0.03125 0.03125)" d="M469.064 401.096L498.548 401.016Q498.687 417.667 498.617 434.319C497.859 432.665 497.348 431.03 496.848 429.282L496.957 424.464L471.647 424.427L471.505 520.378C471.481 540.501 470.53 561.148 472.04 581.211C480.165 567.934 488.034 554.314 496.436 541.23L497.135 542.568Q483.303 565.909 468.571 588.692C469.428 526.181 468.947 463.615 469.064 401.096Z"/>
	<path fill="#19123C" transform="scale(0.03125 0.03125)" d="M589.009 411.962C596.29 406.58 603.864 400.668 609.993 393.988Q617.547 414.773 625.788 435.295C628.785 442.793 632.568 450.489 634.969 458.159L635.341 459.611C637.468 465.116 639.714 470.519 642.288 475.834C639.422 479.855 637.267 484.017 634.899 488.325Q645.616 507.543 656.789 526.5C659.812 532.555 670.721 547.143 671.753 552.233L671.496 552.877C667.2 548.772 661.554 537.247 658.321 531.71Q642.451 504.561 627.06 477.138C625.9 475.34 624.976 473.3 623.974 471.404C620.806 465.819 616.349 460.225 613.768 454.445C605.222 440.461 597.518 425.979 589.009 411.962Z"/>
	<path fill="#6A2688" transform="scale(0.03125 0.03125)" d="M633.626 460.764L633.618 462.808C631.135 467.461 632.467 474.557 630.188 476.717C629.118 476.955 628.156 477.102 627.06 477.138C625.9 475.34 624.976 473.3 623.974 471.404C627.377 468.068 630.462 464.329 633.626 460.764Z"/>
	<path fill="#6A2688" transform="scale(0.03125 0.03125)" d="M612.457 423.294C615.547 429.414 617.382 436.143 621.318 441.839C618.955 445.357 616.474 448.75 613.911 452.125C610.556 445.365 606.801 438.834 603.338 432.133Q607.847 427.662 612.457 423.294Z"/>
	<path fill="#F381AF" transform="scale(0.03125 0.03125)" d="M621.318 441.839C625.708 448.002 630.037 454.088 633.626 460.764C630.462 464.329 627.377 468.068 623.974 471.404C620.806 465.819 616.349 460.225 613.768 454.445L613.911 452.125C616.474 448.75 618.955 445.357 621.318 441.839Z"/>
	<path fill="#19123C" transform="scale(0.03125 0.03125)" d="M470.982 608.307C480.938 594.831 490.674 580.063 498.686 565.355C498.508 573.043 500.104 595.68 497.452 601.31C496.382 603.582 493.517 605.533 491.883 607.517L491.586 607.884C485.824 615.6 480.446 623.939 475.454 632.174Q458.191 632.43 440.926 632.393C435.803 632.407 429.443 631.724 424.474 632.766L423.798 633.501L423.463 633.476C423.689 627.388 422.356 613.254 423.905 608.303Q447.443 608.679 470.982 608.307Z"/>
	<path fill="#6A2688" transform="scale(0.03125 0.03125)" d="M471.647 424.427L496.957 424.464L496.848 429.282C497.348 431.03 497.859 432.665 498.617 434.319C499.121 440.961 498.821 447.814 498.834 454.484L498.881 491.549L498.888 522.047C498.885 527.441 499.224 533.159 498.646 538.516C498.483 540.032 497.987 541.302 497.135 542.568L496.436 541.23C488.034 554.314 480.165 567.934 472.04 581.211C470.53 561.148 471.481 540.501 471.505 520.378L471.647 424.427Z"/>
	<path fill="#2D1351" transform="scale(0.03125 0.03125)" d="M496.436 541.23C498.755 534.185 497.3 505.302 497.114 496.258C496.85 483.362 496.941 470.449 496.817 457.55C496.727 448.145 496.262 438.673 496.848 429.282C497.348 431.03 497.859 432.665 498.617 434.319C499.121 440.961 498.821 447.814 498.834 454.484L498.881 491.549L498.888 522.047C498.885 527.441 499.224 533.159 498.646 538.516C498.483 540.032 497.987 541.302 497.135 542.568L496.436 541.23Z"/>
	<path fill="#19123C" transform="scale(0.03125 0.03125)" d="M539.264 289.58L541.533 287.835C541.558 295.48 541.869 303.235 541.577 310.867C541.088 317.984 540.574 363.65 542.236 367.533C543.431 368.124 545.018 368.377 546.096 368.991L546.112 381.353C544.174 382.578 543.025 384.04 541.684 385.868L541.81 528.569L541.722 573.941C541.674 581.483 541.309 589.123 541.541 596.656C541.597 598.482 541.745 600.176 542.509 601.856L543.213 601.931C546.682 598.155 548.315 592.982 550.717 588.526L562.951 566.295C565.107 562.316 566.996 558.107 569.278 554.21C572.459 549.295 575.129 544.009 578.304 539.055C573.831 533.469 570.287 527.025 566.61 520.901L553.301 499.016C553.617 493.726 553.469 488.381 553.467 483.083C566.976 505.673 581.306 527.925 593.9 551.04C596.217 546.556 598.796 542.192 601.277 537.797C595.569 528.073 589.316 518.629 583.507 508.954C572.181 490.092 560.983 470.86 548.498 452.739C548.523 448.34 547.25 430.935 548.625 428.084Q579.839 477.839 609.306 528.649C615.646 539.579 623.747 550.547 628.798 562.083C625.444 565.083 622.19 566.478 618.051 568.007C613.867 568.702 609.356 569.705 605.118 569.518C602.886 566.599 597.048 564.322 593.495 563.646C592.748 563.504 592.019 563.321 591.28 563.143C588.593 555.849 584.335 548.87 580.54 542.105C577.782 544.751 575.83 548.088 572.726 550.381L570.33 554.65C568.106 559.471 545.217 602.756 543.416 603.682L542.029 603.129C540.127 601.045 539.636 598.641 539.442 595.874C538.82 587.034 539.437 577.842 539.455 568.963L539.47 514.044L539.255 334.87L539.264 289.58Z"/>
	<path fill="#6A2688" transform="scale(0.03125 0.03125)" d="M591.28 563.143C595.928 556.541 599.552 549.12 603.416 542.036C607.736 549.587 615.056 560.2 618.051 568.007C613.867 568.702 609.356 569.705 605.118 569.518C602.886 566.599 597.048 564.322 593.495 563.646C592.748 563.504 592.019 563.321 591.28 563.143Z"/>
	<path fill="#6A2688" transform="scale(0.03125 0.03125)" d="M546.112 381.353C546.389 395.86 545.992 410.373 546.236 424.881C547.089 425.926 547.961 426.905 548.625 428.084C547.25 430.935 548.523 448.34 548.498 452.739C560.983 470.86 572.181 490.092 583.507 508.954C589.316 518.629 595.569 528.073 601.277 537.797C598.796 542.192 596.217 546.556 593.9 551.04C581.306 527.925 566.976 505.673 553.467 483.083C553.469 488.381 553.617 493.726 553.301 499.016L566.61 520.901C570.287 527.025 573.831 533.469 578.304 539.055C575.129 544.009 572.459 549.295 569.278 554.21C566.996 558.107 565.107 562.316 562.951 566.295L550.717 588.526C548.315 592.982 546.682 598.155 543.213 601.931L542.509 601.856C541.745 600.176 541.597 598.482 541.541 596.656C541.309 589.123 541.674 581.483 541.722 573.941L541.81 528.569L541.684 385.868C543.025 384.04 544.174 382.578 546.112 381.353Z"/>
	<path fill="#6A2688" transform="scale(0.03125 0.03125)" d="M681.893 374.484L682.753 375.292C681.387 377.919 681.634 379.247 682.518 382.009C683.925 386.404 686.214 390.49 687.747 394.839C690.201 401.988 693.822 408.731 696.742 415.698C698.337 419.503 699.462 423.837 701.377 427.441C698.525 426.592 695.525 426.218 692.593 425.727C688.381 433.641 683.402 441.167 679.051 449.018C673.509 459.02 668.575 469.388 662.818 479.264C662.366 480.041 661.793 481.188 660.895 481.457C659.724 481.808 658.512 481.73 657.302 481.722C658.543 481.843 659.816 482.037 661.06 482.068C665.761 481.782 672.994 483.291 677.239 481.617C677.448 483.59 677.487 485.506 677.461 487.489L676.223 487.843Q667.451 507.646 656.789 526.5Q645.616 507.543 634.899 488.325C637.267 484.017 639.422 479.855 642.288 475.834C639.714 470.519 637.468 465.116 635.341 459.611L634.969 458.159C635.396 456.874 636.015 456.012 636.816 454.95C651.066 427.695 666.748 401.25 681.893 374.484Z"/>
	<path fill="#D5358C" transform="scale(0.03125 0.03125)" d="M677.239 481.617C677.448 483.59 677.487 485.506 677.461 487.489L676.223 487.843L657.832 488.009C659.162 486.109 660.1 484.164 661.06 482.068C665.761 481.782 672.994 483.291 677.239 481.617Z"/>
	<path fill="#19123C" transform="scale(0.03125 0.03125)" d="M657.302 481.722C657.36 481.441 657.403 481.156 657.476 480.879C658.591 476.644 668.641 460.73 671.458 455.681C676.894 445.938 681.934 435.878 687.541 426.25C688.307 424.935 689.079 423.446 690.415 422.653C691.668 423.43 691.929 424.431 692.593 425.727C688.381 433.641 683.402 441.167 679.051 449.018C673.509 459.02 668.575 469.388 662.818 479.264C662.366 480.041 661.793 481.188 660.895 481.457C659.724 481.808 658.512 481.73 657.302 481.722Z"/>
	<path fill="#19123C" transform="scale(0.03125 0.03125)" d="M681.893 374.484L682.753 375.292C681.387 377.919 681.634 379.247 682.518 382.009C683.925 386.404 686.214 390.49 687.747 394.839C671.933 420.308 658.931 447.63 643.747 473.507C643.979 474.914 644.489 476.497 643.873 477.841C642.889 477.235 642.829 476.823 642.288 475.834C639.714 470.519 637.468 465.116 635.341 459.611L634.969 458.159C635.396 456.874 636.015 456.012 636.816 454.95C651.066 427.695 666.748 401.25 681.893 374.484Z"/>
	<path fill="#F381AF" transform="scale(0.03125 0.03125)" d="M636.816 454.95C638.683 461.282 641.302 467.382 643.747 473.507C643.979 474.914 644.489 476.497 643.873 477.841C642.889 477.235 642.829 476.823 642.288 475.834C639.714 470.519 637.468 465.116 635.341 459.611L634.969 458.159C635.396 456.874 636.015 456.012 636.816 454.95Z"/>
	<path fill="#471E6F" transform="scale(0.03125 0.03125)" d="M484.284 230.211C491.472 243.039 498.492 256.062 505.483 269.005C508.06 273.776 514.295 287.95 517.618 290.991C513.22 295.203 508.382 299.009 503.801 303.027L503.913 333.828C503.931 339.067 503.57 344.638 504.041 349.83Q503.879 359.538 503.835 369.247L465.137 369.152C457.227 369.155 447.967 368.225 440.307 370.026C437.318 370.728 434.589 372.377 432.392 374.502C426.058 380.623 427.371 389.476 427.42 397.504C427.452 402.779 427.563 408.062 427.494 413.337L426.707 411.972C425.602 413.006 425.66 414.868 425.616 416.341C425.211 429.85 426.137 443.542 425.401 457.009C424.416 446.859 425.011 436.227 425.038 426.024Q416.236 425.973 407.437 425.739C406.88 410.861 407.595 395.813 407.618 380.919C407.624 376.896 408.037 373.866 405.057 370.881L404.922 369.716C403.606 368.663 402.369 368.996 400.713 368.973C407.516 357.347 414.69 345.948 421.593 334.382Q452.635 282.114 484.284 230.211Z"/>
</svg>
