<?xml version="1.0" encoding="utf-8" ?>
<svg xmlns="http://www.w3.org/2000/svg" xmlns:xlink="http://www.w3.org/1999/xlink" width="200" height="70">
	<path fill="#FDFCF9" transform="scale(0.0976562 0.0683594)" d="M0 0L2046.25 0C2048.75 3.75313 2047.99 9.76244 2047.99 14.1208L2048.02 767.612L2048.01 954.147C2048.01 967.073 2049.66 1011.74 2047.62 1020.8C2047.36 1021.98 2046.85 1022.96 2046.25 1024L0 1024L0 0Z"/>
	<path fill="#590F19" transform="scale(0.0976562 0.0683594)" d="M142.782 296.702L736.632 120.185L926.56 63.7658C958.877 54.1225 992.273 45.5773 1024 34.2275C1049.24 40.8604 1074.17 49.4046 1099.2 56.8704L1265.03 106.538L1693.21 234.431L1837.72 277.144C1853.08 281.572 1895.28 291.584 1905.94 297.624C1863.32 296.166 1820.42 297.081 1777.77 297.124C1780.61 290.693 1786.01 293.2 1790.97 289.397C1771.52 280.073 1737.54 272.734 1716.08 266.305Q1633.63 240.988 1550.87 216.671L1275.29 134.303Q1149.35 97.3216 1024 58.4115C1001.94 66.44 979.132 72.7412 956.635 79.4474L837.234 114.813L376.838 252.082C339.987 263.256 302.874 273.571 266.079 284.928C255.29 288.257 240.102 291.071 230.812 296.887C201.899 297.326 171.615 298.551 142.782 296.702Z"/>
	<path fill="#590F19" transform="scale(0.0976562 0.0683594)" d="M164.558 928.66L1447.28 928.862L1769.32 928.818L1845.28 928.67C1856.48 928.585 1870.88 926.712 1881.76 928.9C1885.36 933.695 1884.96 943.516 1883.87 949.455C1883.65 950.677 1883.08 951.788 1882.43 952.832C1887.89 952.847 1910.11 954.225 1913.67 951.944C1923.01 955.114 1972.33 952.906 1985.24 952.824C1985.67 953.569 1986.08 954.342 1986.36 955.162C1988.41 961.138 1988.15 978.063 1985.5 983.534L60.9852 983.65L61.1085 952.726L132.937 952.915C143.344 952.909 153.985 953.314 164.368 952.812L164.558 928.66Z"/>
	<path fill="#FDFCF9" transform="scale(0.0976562 0.0683594)" d="M164.558 928.66L1447.28 928.862L1769.32 928.818L1845.28 928.67C1856.48 928.585 1870.88 926.712 1881.76 928.9C1884.21 933.781 1884.33 945.544 1882.67 950.742C1882.47 951.384 1882.22 951.989 1881.93 952.596L774.752 952.7L372.665 952.77L235.382 952.841C211.751 952.854 187.986 953.407 164.368 952.812L164.558 928.66Z"/>
	<path fill="#0A141A" transform="scale(0.0976562 0.0683594)" d="M1024 58.4115Q1149.35 97.3224 1275.29 134.303L1550.87 216.671Q1633.63 240.989 1716.08 266.305C1737.54 272.734 1771.52 280.073 1790.97 289.397C1786.01 293.2 1780.61 290.693 1777.77 297.124C1780.36 306.107 1780.2 319.706 1775.52 327.99C1769.87 337.985 1757.98 343.55 1747.23 346.298C1746.43 346.502 1745.67 346.624 1744.86 346.74C1748.03 353.051 1746.98 389.3 1744.56 396.313C1742.45 402.448 1738.1 406.332 1732.32 408.996C1729.59 410.252 1726.5 411.167 1723.56 411.776C1726.92 417.958 1725.05 481.491 1725.03 492.827C1725 513.951 1723.86 770.866 1725.1 774.014C1725.34 774.623 1725.85 775.086 1726.23 775.621C1728.41 775.707 1730.42 775.847 1732.55 776.365C1734.97 782.658 1733.44 812.808 1732.9 821.48C1741.53 830.078 1738.43 830.865 1742.89 840.041C1744.66 843.686 1777.45 842.42 1782.82 842.411L1824.95 842.32C1827.13 847.816 1827.51 891.648 1825.5 896.631C1825.27 897.223 1825.09 897.43 1824.72 897.999L1913.22 898.06C1916.39 903.092 1916.11 942.658 1914.57 949.591C1914.38 950.412 1914.04 951.195 1913.67 951.944C1910.11 954.225 1887.89 952.847 1882.43 952.832C1883.08 951.788 1883.65 950.677 1883.87 949.455C1884.96 943.516 1885.36 933.695 1881.76 928.9C1870.88 926.712 1856.48 928.585 1845.28 928.67L1769.32 928.818L1447.28 928.862L164.558 928.66L164.368 952.812C153.985 953.314 143.344 952.909 132.937 952.915L132.898 898.144L222.784 898.099L222.721 841.925L308.097 841.845C307.952 837.838 306.977 831.165 308.988 827.615C310.474 824.992 311.723 824.982 314.459 824.283C318.563 819.396 315.168 786.061 316.529 776.655C318.545 774.501 321.494 775.749 324.327 774.616C326.701 766.232 324.911 703.936 324.913 688.982L324.425 412.786C320.685 410.97 317.073 408.891 314.065 405.978C300.798 393.132 304.99 369.241 304.939 352.298C302.627 348.343 300.265 345.196 297.014 341.966C289.577 340.338 283.466 338.719 277.203 334.069C254.464 317.181 273.337 306.476 272.093 298.579C267.868 295.182 238.124 296.95 230.812 296.887C240.102 291.071 255.29 288.257 266.079 284.928C302.874 273.571 339.987 263.256 376.838 252.082L837.234 114.813L956.635 79.4474C979.132 72.7412 1001.94 66.44 1024 58.4115Z"/>
	<path fill="#FDFCF9" transform="scale(0.0976562 0.0683594)" d="M1512.22 836.499C1520.29 835.406 1537.34 834.197 1544.89 836.84L1544.42 839.502C1544.19 839.666 1543.78 839.992 1543.49 840.113C1539.52 841.763 1518.09 841.151 1513.48 839.486L1512.22 836.499Z"/>
	<path fill="#FDFCF9" transform="scale(0.0976562 0.0683594)" d="M498.994 836.406C506.762 836.419 529.313 834.263 535.178 837.635L535.952 840.825C528.268 840.881 505.685 843.097 499.51 839.687L498.994 836.406Z"/>
	<path fill="#FDFCF9" transform="scale(0.0976562 0.0683594)" d="M547.608 381.732L650.598 381.765C668.018 381.746 686.511 380.451 703.814 382.214C705.509 384.481 704.939 388.186 704.934 390.926L603.248 390.938C585.376 391.001 566.561 392.423 548.798 390.746C547.114 388.404 547.641 384.539 547.608 381.732Z"/>
	<path fill="#FDFCF9" transform="scale(0.0976562 0.0683594)" d="M328.727 381.789L433.115 381.719C450.798 381.686 469.653 380.327 487.211 382.121C488.645 384.626 488.151 388.271 488.156 391.104L386.15 391.071C367.682 391.129 348.108 392.482 329.777 390.779C328.25 388.354 328.752 384.595 328.727 381.789Z"/>
	<path fill="#FDFCF9" transform="scale(0.0976562 0.0683594)" d="M1668.75 381.5C1683.6 381.371 1704.42 379.154 1718.5 381.727L1719.61 383.577C1719.68 386.274 1720.23 388.119 1718.64 390.38C1705.24 391.965 1691.01 390.96 1677.5 390.901L1609.75 390.884C1597.53 390.948 1573.84 393.037 1562.65 390.422C1561.29 388.139 1561.64 385.6 1561.68 383.027C1562.16 382.602 1562.53 382.023 1563.11 381.753C1564.93 380.903 1657.98 381.533 1668.75 381.5Z"/>
	<path fill="#FDFCF9" transform="scale(0.0976562 0.0683594)" d="M1468.9 381.5C1476.51 381.635 1492.22 378.719 1498.42 382.653C1499.14 383.631 1499.94 384.704 1500.13 385.932C1500.44 387.983 1500.48 389.063 1499.19 390.734C1484.28 391.934 1468.78 391.112 1453.8 391.104L1370.75 391.04C1362.41 390.984 1350.93 393.163 1343.21 389.677C1341.47 387.189 1341.83 386.087 1341.92 383.145C1342.41 382.766 1342.81 382.266 1343.37 382.007C1345.63 380.954 1457.15 381.612 1468.9 381.5Z"/>
	<path fill="#FDFCF9" transform="scale(0.0976562 0.0683594)" d="M555.143 786.415L650.358 786.508C666.657 786.519 684.031 785.327 700.208 787.061C701.704 790.2 701.188 794.542 701.165 798.002L555.036 797.979L555.143 786.415Z"/>
	<path fill="#FDFCF9" transform="scale(0.0976562 0.0683594)" d="M332.784 786.351L480.37 786.569L480.598 797.968C431.652 797.987 382.468 798.979 333.551 797.712C331.857 795.391 332.717 789.308 332.784 786.351Z"/>
	<path fill="#FDFCF9" transform="scale(0.0976562 0.0683594)" d="M1402.38 785.5L1496.76 785.436C1497.14 786.06 1497.43 786.792 1497.61 787.499C1498.35 790.46 1497.97 794.296 1496.55 796.987L1439.75 797.018L1382.33 797.178C1371.36 797.251 1359.04 798.4 1348.26 796.619C1346.47 794.166 1346.91 789.583 1347.28 786.594C1352.11 783.888 1393.57 785.519 1402.38 785.5Z"/>
	<path fill="#FDFCF9" transform="scale(0.0976562 0.0683594)" d="M547.868 361.831L652.195 361.869C669.046 361.867 687.515 360.29 704.183 362.314C705.387 365.555 704.92 369.922 704.925 373.391C671.907 373.689 638.854 373.199 605.831 373.221C587.275 373.233 567.153 374.926 548.876 372.683C547.362 369.671 547.875 365.197 547.868 361.831Z"/>
	<path fill="#FDFCF9" transform="scale(0.0976562 0.0683594)" d="M1402.45 829.5L1499.33 829.712C1499.87 830.272 1500.39 830.838 1500.87 831.452C1503.01 834.146 1503.61 837.035 1503.23 840.378L1431.75 840.257L1368.16 840.144C1358.92 840.189 1348.33 841.718 1339.24 840.325C1336.36 839.884 1334.95 839.259 1333.26 836.921C1333.63 834.977 1333.75 834.177 1335.21 832.685C1337.17 830.668 1340.53 829.907 1343.23 829.565C1350.65 828.626 1358.72 829.602 1366.22 829.684C1378.29 829.816 1390.38 829.591 1402.45 829.5Z"/>
	<path fill="#FDFCF9" transform="scale(0.0976562 0.0683594)" d="M1341.23 362.499C1351.51 361.684 1362.12 362.232 1372.43 362.256L1428.67 362.296L1474.49 362.228C1482.69 362.222 1491.69 361.471 1499.76 362.773L1500.78 365C1500.34 368.923 1500.43 370.433 1498.07 373.687C1480.81 374.991 1462.45 373.796 1445.05 373.794Q1394.07 373.955 1343.1 373.544C1341.37 371.81 1341.64 365.306 1341.23 362.499Z"/>
	<path fill="#FDFCF9" transform="scale(0.0976562 0.0683594)" d="M1560.87 362.499C1568.98 361.635 1577.66 362.218 1585.85 362.222L1632 362.204L1687.27 362.174C1697.9 362.174 1708.84 361.642 1719.42 362.658L1720.38 364.429C1720.19 367.867 1720.01 370.389 1718.23 373.405C1713.84 374.827 1574.45 374.223 1563.02 373.432C1561.16 371.283 1561.22 365.457 1560.87 362.499Z"/>
	<path fill="#FDFCF9" transform="scale(0.0976562 0.0683594)" d="M1564.67 785.499C1582.54 783.291 1610.63 785.032 1629.6 784.987C1657.92 784.92 1691.38 783.024 1719.16 785.282L1720.17 787.451C1720.05 790.656 1720.39 794.047 1718.01 796.501C1705.38 798.782 1685.67 796.931 1672.2 796.911L1564.13 796.764C1566.14 793.657 1565.29 788.93 1564.67 785.499Z"/>
	<path fill="#FDFCF9" transform="scale(0.0976562 0.0683594)" d="M322.905 830.044C341.91 830.021 488.102 828.213 492.372 831.008L492.395 840.791L384.619 840.922C364.395 840.925 343.939 841.527 323.747 840.517C322.246 838.434 322.897 832.718 322.905 830.044Z"/>
	<path fill="#FDFCF9" transform="scale(0.0976562 0.0683594)" d="M328.37 361.52L441.61 361.59C453.52 361.599 476.613 359.741 487.404 362.328C488.791 365.502 488.299 369.942 488.275 373.389L328.394 373.133L328.37 361.52Z"/>
	<path fill="#FDFCF9" transform="scale(0.0976562 0.0683594)" d="M542.457 829.975L662.602 829.896C678.02 829.885 699.82 827.92 714.522 830.403C715.97 833.239 715.439 837.527 715.416 840.695L542.463 840.556L542.457 829.975Z"/>
	<path fill="#FDFCF9" transform="scale(0.0976562 0.0683594)" d="M1557.69 830.499C1569.62 827.951 1595.93 829.82 1609.36 829.84L1727.4 829.845C1729.04 830.966 1731.96 834.177 1732.64 836.035C1733.34 837.946 1733.09 838.209 1732.26 839.919L1729.28 840.705C1709.32 840.731 1559.02 841.79 1556.08 839.114C1555.63 836.086 1556.79 833.355 1557.69 830.499Z"/>
	<path fill="#FDFCF9" transform="scale(0.0976562 0.0683594)" d="M554.825 808.842L701.278 808.913L701.289 822.177L554.824 822.234L554.825 808.842Z"/>
	<path fill="#FDFCF9" transform="scale(0.0976562 0.0683594)" d="M332.363 808.397L480.95 808.667L480.935 822.133L332.316 822.279L332.363 808.397Z"/>
	<path fill="#FDFCF9" transform="scale(0.0976562 0.0683594)" d="M1564.62 808.499C1581.93 806.901 1600.23 808.112 1617.66 808.077L1719.47 807.744C1720.45 809.352 1720.94 811.081 1721.16 812.947C1721.5 815.9 1720.99 818.297 1719.14 820.665C1712.48 823.05 1580.72 821.324 1563.69 821.329C1565.99 817.762 1565.22 812.48 1564.62 808.499Z"/>
	<path fill="#FDFCF9" transform="scale(0.0976562 0.0683594)" d="M1415.88 807.5L1494.45 807.415C1494.97 808.25 1495.33 808.992 1495.58 809.951C1496.66 814.007 1496.26 818.318 1494.24 821.987L1424.75 822.062L1345 822.124C1345.59 821.156 1346.03 820.286 1346.34 819.187C1347.51 815.105 1347.13 811.271 1345.13 807.544L1415.88 807.5Z"/>
	<path fill="#FDFCF9" transform="scale(0.0976562 0.0683594)" d="M1341.32 339.499C1358.33 337.802 1376.86 339.086 1394.01 339.1L1499.25 339.233C1499.96 340.352 1500.24 341.401 1500.48 342.694C1501.19 346.512 1500.67 349.345 1498.51 352.501C1488.84 354.659 1466.72 352.924 1455.61 352.925L1340.41 352.943C1342.84 349.236 1341.96 343.638 1341.32 339.499Z"/>
	<path fill="#FDFCF9" transform="scale(0.0976562 0.0683594)" d="M547.797 338.894L704.996 339.04L705.02 352.88L547.839 352.887L547.797 338.894Z"/>
	<path fill="#FDFCF9" transform="scale(0.0976562 0.0683594)" d="M1560.81 339.499C1576.81 337.222 1595.15 338.952 1611.45 338.949L1718.68 338.963C1719.81 340.726 1720.26 342.916 1720.38 344.991C1720.55 348.051 1720.17 350.327 1718.12 352.681C1708.73 354.758 1684.48 353.074 1673.1 353.06L1559.8 353.143C1562.13 348.669 1561.81 344.311 1560.81 339.499Z"/>
	<path fill="#FDFCF9" transform="scale(0.0976562 0.0683594)" d="M328.474 338.947L488.505 338.962L488.5 352.783L328.423 352.975L328.474 338.947Z"/>
	<path fill="#FDFCF9" transform="scale(0.0976562 0.0683594)" d="M899.481 834.496L1160.84 834.267L1282.2 834.452C1293.69 834.541 1305.23 833.92 1316.69 834.274C1319.73 834.368 1323.29 834.422 1325.52 836.78L1325.34 838.98C1325.05 839.253 1324.13 840.318 1323.83 840.409C1319.16 841.821 1293.34 840.526 1285.8 840.526L1147.75 840.413L843.908 840.484C828.172 840.522 730.913 842.806 722.309 839.868C721.457 837.839 721.648 837.908 722.407 835.975C723.062 835.617 724.098 834.843 724.784 834.675C730.29 833.327 759.373 834.684 766.925 834.688L899.481 834.496Z"/>
	<path fill="#FDFCF9" transform="scale(0.0976562 0.0683594)" d="M1023.6 68.0334C1032.18 68.0121 1054.9 76.7564 1064.45 79.6743Q1101.88 91.1991 1139.45 102.268L1555.45 226.283L1688.35 266.086C1709.69 272.534 1733.88 282.074 1755.53 286.082L1756.34 286.227L1757.54 288.74L1757.93 287.496C1752.7 291.781 1731.41 284.405 1725.47 282.544Q1616.35 249.058 1506.85 216.858L1130.49 104.354L1061.62 83.4896C1050.33 80.0485 1038.49 75.5416 1026.92 73.2992C1024.62 72.8531 1022.74 72.9609 1020.49 73.6459C1020.25 73.7193 1020.02 73.7982 1019.78 73.8744L484.67 233.097L350.344 273.267C332.131 278.602 295.5 291.724 277.59 291.468C294.439 282.53 336.856 272.421 356.742 266.633L493.718 225.912L1023.6 68.0334Z"/>
	<path fill="#FDFCF9" transform="scale(0.0976562 0.0683594)" d="M1382.74 414.499C1390.57 413.942 1398.66 414.39 1406.52 414.428C1406.85 415.059 1406.93 415.161 1407.16 415.775C1409.68 422.591 1407.99 487.26 1407.99 499.325L1407.47 747.671C1407.43 754.245 1408.59 760.871 1408.38 767.374C1408.29 770.102 1407.62 772.347 1406.55 774.842C1403.46 776.986 1401.45 776.384 1397.75 776.342L1373.12 776.429C1374.29 774.596 1374.73 772.977 1374.87 770.806C1376.34 748.525 1375.94 725.797 1376.49 703.456L1379.77 574.105L1382.11 466.604C1382.42 449.324 1383.55 431.744 1382.74 414.499Z"/>
	<path fill="#FDFCF9" transform="scale(0.0976562 0.0683594)" d="M589.877 413.822L613.388 413.822L613.513 679.863Q613.617 714.68 613.299 749.496C613.237 756.702 614.501 766.059 612.934 772.986C610.524 775.105 609.388 774.652 606.25 774.742L579.774 774.805C580.452 713.853 582.623 652.823 584.336 591.888C586.004 532.554 587.194 473.115 589.877 413.822Z"/>
	<path fill="#FDFCF9" transform="scale(0.0976562 0.0683594)" d="M1434.69 414.499C1442.37 413.549 1450.68 414.147 1458.44 414.157C1459.48 415.818 1459.91 417.246 1460.04 419.185C1462.98 463.835 1462.11 509.209 1463.23 553.997C1465.02 625.297 1467.96 696.694 1468.93 768C1468.99 771.869 1469.02 772.634 1466.25 775.49L1433.56 775.645C1437.05 768.934 1435.04 697.484 1435.03 684.939L1435.05 497.254L1435.18 443.395C1435.2 434.026 1436.12 423.708 1434.69 414.499Z"/>
	<path fill="#FDFCF9" transform="scale(0.0976562 0.0683594)" d="M369.196 413.525L394.102 413.619Q394.242 530.308 393.214 646.992Q393.017 693.597 392.322 740.198C392.192 749.295 392.884 758.679 392.486 767.709C392.362 770.526 391.921 772.149 390.146 774.285L386.25 774.513L358.743 774.55L369.196 413.525Z"/>
	<path fill="#FDFCF9" transform="scale(0.0976562 0.0683594)" d="M1656.26 414.499C1663.73 413.506 1671.8 414.06 1679.35 414.058C1680.12 415.146 1680.69 416.306 1680.92 417.626C1682.89 429.049 1682.1 442.594 1682.47 454.283L1684.68 537.434L1689.45 697.38C1690.09 719.868 1691.37 742.553 1691.46 765.031C1691.48 769.222 1691.46 771.29 1689.06 774.752C1678.22 775.943 1666.09 774.942 1655.12 774.951C1658.46 768.481 1656.79 722.344 1656.81 712.512L1656.86 499.744C1656.89 483.297 1658.89 426.632 1656.26 414.499Z"/>
	<path fill="#FDFCF9" transform="scale(0.0976562 0.0683594)" d="M640.847 413.285L665.544 413.303L671.429 634.067C672.743 680.896 675.031 727.932 674.989 774.762L640.871 774.84C641.174 654.355 639.284 533.75 640.847 413.285Z"/>
	<path fill="#FDFCF9" transform="scale(0.0976562 0.0683594)" d="M1603.84 414.499C1611.32 413.444 1619.57 414.082 1627.14 414.074C1627.23 414.213 1627.33 414.348 1627.41 414.492C1629.02 417.222 1628.74 420.675 1628.78 423.748C1629.89 508.492 1629.01 593.373 1628.98 678.132L1628.94 738.924C1628.96 750.329 1630.55 763.782 1628 774.796C1624.62 775.743 1619.36 775.056 1615.75 775.068L1591.16 775.127C1592.83 772.71 1592.88 770.482 1593.06 767.635C1594.74 740.606 1595.09 713.342 1596.05 686.27L1601.46 523.605L1603.51 449.987C1603.81 438.691 1605.6 425.531 1603.84 414.499Z"/>
	<path fill="#FDFCF9" transform="scale(0.0976562 0.0683594)" d="M419.786 413.434L445.673 413.476C447.268 505.704 450.937 597.939 451.99 690.17Q452.442 718.382 453.35 746.583C453.582 755.662 454.624 765.546 453.507 774.546L419.492 774.655C420.867 654.274 418.099 533.832 419.786 413.434Z"/>
	<path fill="#FDFCF9" transform="scale(0.0976562 0.0683594)" d="M285.134 295.853C311.322 295.509 337.721 297.382 363.97 297.509L600.868 297.831L1467.99 298.011L1695.87 297.941C1705.87 297.927 1760.58 296.395 1765.95 298.141C1767.77 298.731 1767.83 299.808 1768.5 301.383C1768.23 304.65 1767.87 306.467 1765.9 309.14C1757.73 310.914 1746.42 309.633 1737.93 309.661L1667.52 309.738L1385.44 309.812L285.091 308.976L285.134 295.853Z"/>
	<path fill="#FDFCF9" transform="scale(0.0976562 0.0683594)" d="M511.914 343.861C515.297 343.769 518.435 343.82 521.779 344.36C527.677 350.821 519.803 383.422 526.617 397.166C530.867 405.737 538.136 409.283 546.729 412.193C546.657 446.449 547.636 773.037 546.465 775.4C545.059 778.237 540.354 775.79 539.283 778.275C536.376 785.015 542.68 817.666 538.433 821.309C537.815 821.839 536.378 821.851 535.728 822.366C534.562 823.291 533.608 826.887 532.253 828.354L523.761 828.267C516.031 828.366 507.265 829.14 499.718 827.482C492.457 814.396 496.403 793.23 495.936 778.49C494.361 775.864 491.468 777.503 488.8 775.886C486.746 765.678 487.997 753.34 488.04 742.924L488.229 681.042L488.318 411.826C494.079 410.03 499.601 407.954 503.986 403.628C516.252 391.529 512.003 360.393 511.914 343.861Z"/>
	<path fill="#FDFCF9" transform="scale(0.0976562 0.0683594)" d="M1524.99 345.498C1528.78 345.021 1532.2 344.428 1535.92 345.54C1540.47 351.246 1535.35 384.754 1537.68 395.356C1540.14 406.56 1551.66 407.098 1559.73 412.273C1559.85 412.353 1559.97 412.437 1560.09 412.518C1560.81 414.239 1561.29 416.136 1561.38 418C1562.1 432.95 1561.53 448.233 1561.57 463.22L1561.63 556.303C1561.62 628.778 1562.55 701.444 1561.47 773.901C1559.72 776.462 1557.23 775.109 1554.58 776.664C1552.35 785.27 1554.47 800.833 1554.44 810.231C1554.43 815.278 1554.62 821.521 1550.5 825.177C1546.48 828.743 1541.73 828.222 1536.75 827.99L1513.8 827.991C1512.16 825.018 1510.17 822.968 1507.73 820.635C1508.41 813.574 1509.84 781.392 1506.8 776.691L1502.53 776.32C1502.1 775.887 1501.55 775.546 1501.25 775.021C1500.21 773.23 1501.03 509.969 1501.04 487.211C1501.04 473.811 1502.97 421.404 1499.72 412.325C1502.18 411.9 1504.64 411.2 1507.03 410.462C1513.73 408.385 1520 404.845 1523.27 398.402C1527.35 390.372 1527.62 353.96 1524.99 345.498Z"/>
	<path fill="#FDFCF9" transform="scale(0.0976562 0.0683594)" d="M255.204 871.998L1794.01 871.943C1794.68 872.959 1795.15 873.984 1795.32 875.208C1796.19 881.643 1797 892.759 1792.97 897.905C1775.71 898.829 1758.13 898.137 1740.84 898.139L1644.76 898.162L1338.62 898.247L255.148 898.239L255.204 871.998Z"/>
	<path fill="#FDFCF9" transform="scale(0.0976562 0.0683594)" d="M1024 84.1211C1032.24 85.4695 1040.72 88.8289 1048.72 91.2823Q1072.56 98.7258 1096.52 105.759L1305.52 168.3L1587.58 252.842Q1620.68 263.145 1653.88 273.097C1666.89 276.983 1681.04 280.086 1693.45 285.568C1676.45 287.265 1647.35 285.71 1629.29 285.73L1488.05 285.763L1025.75 285.383L353.289 284.824C376.694 276.964 400.593 270.44 424.225 263.288Q500.871 239.667 577.943 217.479L838.52 139.347C900.305 120.92 962.524 103.539 1024 84.1211Z"/>
	<path fill="#0A141A" transform="scale(0.0976562 0.0683594)" d="M1023.97 92.9413C1030.94 93.0364 1095.07 113.973 1107.94 117.813L1430.07 215.031Q1502.37 236.396 1574.35 258.819C1592.47 264.397 1614.37 268.609 1631.29 276.537C1618 278.976 1595.06 277.169 1581.01 277.159L1464.65 277.074L1026.75 277.082L617.075 277.054C550.649 276.955 483.784 278.395 417.406 276.493C482.067 254.358 548.284 235.744 613.734 216.061L1023.97 92.9413Z"/>
	<path fill="#FDFCF9" transform="scale(0.0976562 0.0683594)" d="M1022.68 107.064C1024.31 106.809 1026.08 107.053 1027.66 107.497C1082.39 122.906 1136.69 140.306 1191.07 156.918L1422.8 227.452Q1457.55 238.265 1492.46 248.518C1503.42 251.72 1527.57 256.888 1536.34 262.114L1019.5 261.793L709.154 261.821Q605.208 261.187 501.271 262.787C531.643 255.169 561.668 245.793 591.669 236.844Q653.179 218.755 714.46 199.909L1022.68 107.064Z"/>
	<path fill="#0A141A" transform="scale(0.0976562 0.0683594)" d="M1024 126.982C1031.22 127.636 1039.96 131.547 1047.03 133.759L1102.23 151.24Q1187.15 178.045 1272.38 203.805L1348.28 227.019C1358.28 230.031 1377.13 233.663 1385.09 238.708C1372.43 240.007 1358.93 239.014 1346.16 238.989L1271.58 238.901L1024.75 238.531L663.358 238.388C673.552 234.122 684.815 231.572 695.373 228.248Q730.86 216.908 766.498 206.055L930.923 155.207C961.906 145.751 993.248 137.136 1024 126.982Z"/>
	<path fill="#FDFCF9" transform="scale(0.0976562 0.0683594)" d="M1054.67 152.448C1061.79 151.274 1080.11 158.329 1086.81 161.607C1087.33 162.668 1087.75 163.777 1087.93 164.949C1089.11 172.691 1089.58 217.778 1086.31 222.509C1078.92 224.786 1062.39 222.968 1054.12 222.921C1054.44 222.334 1054.43 222.372 1054.74 221.668C1057.17 216.116 1056.98 158.224 1054.67 152.448Z"/>
	<path fill="#FDFCF9" transform="scale(0.0976562 0.0683594)" d="M991.764 151.178C994.445 154.605 992.63 213.705 992.568 222.788L961.297 222.819C958.026 218.619 960.008 169.815 960.032 160.926Q975.865 155.944 991.764 151.178Z"/>
	<path fill="#FDFCF9" transform="scale(0.0976562 0.0683594)" d="M1023.95 141.099C1029.09 142.795 1034.33 144.349 1039.22 146.69C1039.75 147.544 1040.1 148.102 1040.33 149.092C1041.85 155.82 1041.57 218.75 1039.11 222.846L1024.75 222.87L1007.9 222.881L1007.99 145.92C1013.43 144.833 1018.7 142.848 1023.95 141.099Z"/>
	<path fill="#FDFCF9" transform="scale(0.0976562 0.0683594)" d="M730.349 344.935L1316.4 344.934C1322.63 355.696 1314.82 382.121 1318.52 395.415C1320.88 403.855 1330.83 407.151 1337.77 411.004C1338.43 412.135 1338.81 413.27 1338.96 414.574C1340.4 427.118 1339.35 441.002 1339.38 453.715L1339.41 535.877L1339.67 772.34C1339.65 774.683 1339.95 775.464 1338.48 777.375C1336.91 777.405 1335 777.28 1333.49 777.62C1328.38 778.767 1334.24 816.298 1329.65 824.737L1315.75 824.752L716.869 824.567C716.989 809.325 717.716 793.762 716.539 778.57C714.26 775.575 711.533 777.819 708.549 775.729C707.679 729.85 708.101 683.865 708.054 637.976L708.217 412.57C713.566 411.016 718.6 408.995 722.61 405.007C734.618 393.065 730.342 361.362 730.349 344.935Z"/>
	<path fill="#590F19" transform="scale(0.0976562 0.0683594)" d="M1039.11 389.469C1055.7 387.871 1073.46 389.092 1090.17 389.091L1191.23 389.092C1194.13 393.818 1192.68 401.533 1191.84 406.681C1180.73 409.408 1175.12 408.408 1166.69 417.655C1164.16 420.425 1162.22 423.595 1159.4 426.116C1159.26 426.24 1159.12 426.359 1158.98 426.481C1159.25 427.087 1159.45 427.551 1159.57 428.208C1160.81 434.87 1159.93 443.256 1159.93 450.065L1159.92 497.953L1159.98 676.82C1159.98 689.566 1162.16 771.689 1158.1 778.016L1281.46 777.947C1281.96 777.523 1282.41 777.075 1282.84 776.577C1285.8 773.099 1322.98 673.116 1322.75 670.877C1323.05 671.744 1323.31 672.614 1323.51 673.511C1324.98 680.308 1325.66 706.24 1322.37 711.5C1322.96 712.432 1323.48 713.429 1323.74 714.51C1324.83 719.043 1324.8 764.84 1323.26 766.848C1322.52 767.822 1319.8 767.693 1318.52 767.806C1313.24 771.917 1320.02 803.289 1315.13 812.203L1035.6 812.118C1035.74 811.903 1035.88 811.695 1036.01 811.474C1038.58 807.035 1037.13 798.79 1035.95 794.121C1046.73 794.192 1059.29 793.323 1067.5 785.448C1075.22 778.034 1075.65 766.536 1075.93 756.439C1076.59 732.408 1076.01 708.2 1076.01 684.152L1075.99 542.458L1076.05 467.569C1076.07 454.229 1077.12 439.953 1075.34 426.768C1074.83 423.028 1072.36 419.433 1069.78 416.78C1061.66 408.436 1049.99 406.909 1038.97 406.777C1040.21 401.227 1040.13 395.037 1039.11 389.469Z"/>
	<path fill="#FDFCF9" transform="scale(0.0976562 0.0683594)" d="M1109.72 416.492C1114.8 415.606 1120.39 416.025 1125.54 416.002C1126.03 416.806 1126.49 417.646 1126.77 418.55C1128.96 425.612 1127.5 518.986 1127.51 533.896L1127.68 690.962C1127.71 717.656 1128.53 744.625 1127.65 771.289C1127.58 773.491 1127.3 774.942 1126.15 776.878C1122.92 779.022 1113.13 777.953 1108.97 777.908C1111.88 773.008 1110.21 648.071 1110.2 632.175L1110.13 477.497C1110.16 464.058 1112.18 426.238 1109.72 416.492Z"/>
	<path fill="#590F19" transform="scale(0.0976562 0.0683594)" d="M870.417 389.131L1014.86 389.145L1014.81 406.419C1011.92 406.386 1008.86 406.531 1006.01 407.053C998.116 408.503 990.064 413.05 985.481 419.713L985.107 420.265C983.767 422.214 983.079 423.939 982.742 426.303C980.824 439.773 982.035 454.82 982.04 468.486L982.082 548.34L981.98 689.539C981.966 713.57 981.137 737.925 982.113 761.924C982.346 767.664 982.121 776.588 985.735 781.223C986.443 782.131 987.126 783.062 987.886 783.927C995.559 792.671 1008.21 793.603 1019.05 794.287L1019.02 812.073L870.223 811.988L870.173 795.439C878.992 793.749 888.563 792.21 895.247 785.67C898.238 782.743 900.034 779.819 900.907 775.696C903.402 763.928 902.169 750.605 902.156 738.586L902.081 679.799L814.059 679.752C805.263 701.864 776.246 757.71 774.845 777.426C774.581 781.134 774.787 785.612 777.406 788.51C783.946 795.743 797.231 794.645 806.062 794.914L805.825 812.08L728.42 812.035L728.501 796.596C733.105 793.881 737.024 790.815 740.251 786.502C753.148 769.268 772.558 719.441 782.543 697.25Q844.555 560.225 904.693 422.367L895.09 412.183L778.59 674.328C761.946 711.25 746.331 749.182 727.781 785.175C727.825 767.685 725.063 734.005 728.593 718.59C732.458 701.712 747.327 673.622 754.697 656.845L834.823 475.201C846.204 449.146 859.76 422.777 869.305 396.041C870.119 393.761 870.447 391.545 870.417 389.131Z"/>
	<path fill="#FDFCF9" transform="scale(0.0976562 0.0683594)" d="M934.991 416.814L949.13 416.816L949.121 785.786L934.754 785.82L934.991 416.814Z"/>
	<path fill="#FDFCF9" transform="scale(0.0976562 0.0683594)" d="M902.543 477.853C904.409 479.87 903.846 632.78 903.876 648.134L829.291 648.055L828.48 646.902C832.245 633.447 844.402 610.131 850.431 596.45Q876.803 537.29 902.543 477.853Z"/>
</svg>
